<?xml version="1.0" standalone="no"?>
<!DOCTYPE svg PUBLIC "-//W3C//DTD SVG 20010904//EN"
 "http://www.w3.org/TR/2001/REC-SVG-20010904/DTD/svg10.dtd">
<svg version="1.0" xmlns="http://www.w3.org/2000/svg"
 width="247.000000pt" height="161.000000pt" viewBox="0 0 247.000000 161.000000"
 preserveAspectRatio="xMidYMid meet">
<metadata>
Created by potrace 1.10, written by Peter Selinger 2001-2011
</metadata>
<g transform="translate(0.000000,161.000000) scale(0.100000,-0.100000)"
fill="#000000" stroke="none">
<path d="M630 1383 c-8 -3 -21 -12 -27 -21 -15 -19 -17 -72 -3 -72 6 0 10 -7
10 -17 0 -9 3 -13 7 -10 3 4 1 18 -7 31 -16 32 -8 51 32 76 30 18 24 26 -12
13z"/>
<path d="M853 1383 c20 -2 54 -2 75 0 20 2 3 4 -38 4 -41 0 -58 -2 -37 -4z"/>
<path d="M1090 1383 c73 -5 104 -32 96 -83 l-6 -35 15 27 c11 20 12 33 5 53
-12 32 -47 46 -113 43 l-52 -2 55 -3z"/>
<path d="M672 1301 c3 -14 29 -16 220 -19 205 -2 218 -1 227 17 10 18 4 19
-220 19 -207 0 -230 -2 -227 -17z m377 -6 c2 -3 -74 -4 -170 -3 -114 1 -153 4
-114 8 63 6 276 3 284 -5z"/>
<path d="M694 1110 c0 -88 4 -160 7 -160 3 0 2 -24 -2 -52 -9 -70 0 -148 17
-148 18 0 18 221 1 232 -9 6 -9 8 1 8 19 0 17 206 -3 214 -21 8 -19 53 3 59
13 4 13 5 -4 6 -21 1 -22 -1 -20 -159z"/>
<path d="M740 1230 l0 -40 46 0 c29 0 43 4 39 11 -4 6 -13 8 -21 5 -9 -4 -14
2 -14 17 l-1 22 -19 -24 -20 -23 0 30 0 29 70 2 c70 1 81 -4 58 -27 -9 -9 -9
-12 0 -12 7 0 12 -5 12 -11 0 -7 -10 -9 -25 -5 -14 4 -25 2 -25 -4 0 -5 23
-10 50 -10 l50 0 0 35 c0 24 5 35 15 35 9 0 15 -10 15 -26 0 -14 -4 -23 -10
-19 -5 3 -10 2 -10 -3 0 -10 33 -22 63 -22 9 0 17 7 17 15 0 18 -16 20 -23 3
-3 -7 -6 -4 -6 7 -1 22 15 52 23 45 2 -3 9 -21 14 -40 l10 -35 1 43 1 42 -155
0 -155 0 0 -40z m185 22 c-14 -10 -17 -32 -5 -32 6 0 10 -4 10 -10 0 -5 -7
-10 -15 -10 -10 0 -15 10 -15 30 0 22 5 30 18 30 9 0 13 -4 7 -8z"/>
<path d="M1070 1262 c19 -9 20 -50 1 -62 -12 -7 -13 -13 -3 -34 6 -14 8 -26 3
-26 -11 0 -8 -283 3 -334 7 -29 6 -40 -5 -48 -11 -7 -10 -8 4 -6 16 3 18 22
21 261 2 254 2 257 -18 256 -16 0 -17 -2 -6 -7z"/>
<path d="M1164 1120 c0 -74 1 -105 3 -67 2 37 2 97 0 135 -2 37 -3 6 -3 -68z"/>
<path d="M741 935 l0 -245 154 0 155 0 0 245 0 245 -155 0 -154 0 0 -245z
m299 -3 l0 -232 -145 1 -144 0 0 233 0 233 145 -1 144 -1 0 -233z"/>
<path d="M782 1058 l-2 -68 50 0 50 0 0 66 c0 57 -2 65 -17 62 -12 -2 -18 -13
-19 -31 -1 -35 13 -35 19 1 2 15 5 1 6 -30 l1 -58 -40 0 -39 0 -4 63 -3 62 -2
-67z"/>
<path d="M910 1055 l0 -65 50 0 50 0 0 65 c0 36 -3 65 -7 65 -17 0 -29 -16
-29 -37 0 -32 14 -29 19 5 2 15 5 1 6 -30 l1 -58 -40 0 -40 0 1 58 c1 31 4 45
6 30 5 -34 23 -37 23 -4 0 20 -16 36 -36 36 -2 0 -4 -29 -4 -65z"/>
<path d="M840 948 c0 -15 9 -18 55 -18 48 0 55 2 55 20 0 18 -6 20 -55 18 -45
-2 -55 -5 -55 -20z"/>
<path d="M780 830 l0 -80 48 0 47 0 2 80 3 80 -50 0 -50 0 0 -80z m80 1 l0
-68 -30 1 -30 1 0 68 0 67 30 0 30 0 0 -69z"/>
<path d="M910 832 c0 -43 -4 -83 -10 -90 -7 -9 -7 -9 2 -2 7 6 34 10 60 10
l48 0 -4 53 c-2 28 -4 64 -5 80 -1 25 -4 27 -46 27 l-45 0 0 -78z m80 -3 c0
-61 -2 -70 -16 -65 -9 3 -22 6 -29 6 -9 0 -13 19 -14 65 l-1 65 30 0 30 0 0
-71z"/>
<path d="M624 945 c0 -126 2 -177 3 -112 2 65 2 168 0 230 -1 62 -3 9 -3 -118z"/>
<path d="M1226 923 c-3 -4 -6 -64 -6 -135 0 -121 1 -128 20 -128 19 0 20 7 20
92 0 50 3 89 6 85 3 -3 11 -43 18 -89 10 -72 14 -83 31 -83 17 0 21 11 31 83
7 46 15 86 18 89 3 4 6 -35 6 -85 0 -86 1 -92 20 -92 20 0 20 5 18 133 l-3
132 -30 0 c-29 0 -29 -2 -43 -78 -8 -43 -16 -76 -18 -74 -3 2 -10 37 -17 77
-11 68 -14 73 -39 76 -14 1 -29 0 -32 -3z"/>
<path d="M1485 918 c-32 -18 -35 -28 -35 -123 0 -113 12 -135 74 -135 66 0 76
18 76 131 0 100 -3 110 -37 128 -27 14 -52 14 -78 -1z m60 -51 c3 -12 5 -54 3
-92 -3 -62 -5 -70 -23 -70 -18 0 -20 8 -23 79 -2 44 -1 85 2 93 8 21 35 15 41
-10z"/>
<path d="M1640 795 l0 -135 26 0 c25 0 26 1 21 58 -3 31 -8 75 -12 97 -6 37
-5 39 9 21 9 -11 16 -29 16 -39 0 -11 10 -46 21 -78 16 -43 27 -59 40 -59 18
0 19 10 19 135 0 127 -1 135 -19 135 -28 0 -29 -6 -20 -94 5 -44 8 -81 5 -83
-2 -2 -11 8 -21 23 -9 15 -12 23 -6 20 15 -10 14 -4 -15 69 -19 48 -31 65 -45
65 -18 0 -19 -9 -19 -135z"/>
<path d="M1844 785 c0 -66 1 -92 3 -57 2 34 2 88 0 120 -2 31 -3 3 -3 -63z"/>
<path d="M690 715 c0 -18 5 -25 20 -25 15 0 20 7 20 25 0 18 -5 25 -20 25 -15
0 -20 -7 -20 -25z"/>
<path d="M1060 715 c0 -18 5 -25 20 -25 15 0 20 7 20 25 0 18 -5 25 -20 25
-15 0 -20 -7 -20 -25z"/>
<path d="M457 632 c-10 -10 -17 -24 -17 -32 0 -7 9 -1 20 13 18 22 30 27 83
30 l62 3 -66 2 c-53 2 -69 -2 -82 -16z"/>
<path d="M2034 643 c149 -3 159 -5 177 -26 23 -28 24 -75 2 -107 l-17 -25 22
19 c30 26 31 97 2 126 -19 19 -32 20 -182 18 l-163 -2 159 -3z"/>
<path d="M497 460 l2 -133 26 -3 c24 -3 25 -1 25 63 0 82 21 82 35 -2 10 -55
12 -58 43 -61 17 -2 32 -3 32 -1 0 1 -9 31 -20 67 -17 56 -18 66 -5 73 20 11
20 90 0 107 -8 7 -43 15 -77 17 l-63 5 2 -132z m101 56 c4 -28 -10 -46 -35
-46 -8 0 -13 15 -13 41 0 36 2 40 23 37 16 -2 23 -11 25 -32z"/>
<path d="M690 458 l0 -133 60 0 c50 0 60 3 60 18 0 12 -8 17 -30 17 -29 0 -30
2 -30 43 0 39 3 43 22 43 14 -1 24 6 26 17 3 13 -3 17 -22 17 -23 0 -26 4 -26
35 0 32 2 35 30 35 23 0 30 4 30 20 0 18 -7 20 -60 20 l-60 0 0 -132z"/>
<path d="M850 570 c-35 -35 -23 -79 37 -136 21 -20 33 -40 31 -51 -5 -26 -32
-22 -36 5 -3 17 -9 22 -25 20 -31 -4 -33 -33 -3 -63 47 -47 116 -22 116 42 0
29 -9 46 -46 85 -25 27 -44 54 -42 60 7 21 29 20 35 -1 4 -14 13 -21 30 -21
22 0 24 3 19 28 -13 53 -77 71 -116 32z"/>
<path d="M990 570 c0 -13 7 -20 20 -20 19 0 20 -7 20 -113 l0 -113 26 1 26 2
-1 113 c-2 109 -1 112 18 107 17 -4 21 0 21 19 0 23 -3 24 -65 24 -58 0 -65
-2 -65 -20z"/>
<path d="M1170 587 c0 -2 -11 -61 -25 -132 -14 -72 -25 -131 -25 -133 0 -1 12
-1 28 1 21 3 28 10 30 30 3 21 9 27 28 27 20 0 24 -5 24 -30 0 -25 4 -30 25
-30 14 0 25 3 25 8 0 4 -10 64 -22 135 l-23 127 -32 0 c-18 0 -33 -1 -33 -3z
m44 -119 c5 -48 4 -58 -9 -58 -13 0 -15 12 -13 64 3 77 13 74 22 -6z"/>
<path d="M1310 476 c0 -133 11 -156 75 -156 64 0 75 23 75 155 l0 115 -25 0
c-24 0 -24 0 -27 -112 -3 -105 -4 -113 -23 -113 -19 0 -20 7 -21 110 l-2 110
-26 3 -26 3 0 -115z"/>
<path d="M1500 458 l0 -135 31 0 30 0 -2 56 c-3 76 12 79 31 7 13 -52 18 -59
43 -62 32 -3 31 -6 11 68 -16 54 -16 60 0 76 22 25 20 75 -3 96 -12 11 -43 20
-80 23 l-61 6 0 -135z m98 80 c18 -18 14 -46 -7 -58 -29 -15 -31 -13 -31 30 0
41 14 52 38 28z"/>
<path d="M1710 468 c-12 -68 -25 -129 -28 -136 -3 -10 3 -13 24 -10 23 2 30 9
32 31 3 21 9 27 27 27 18 0 24 -6 27 -27 2 -21 9 -29 27 -31 23 -4 24 -2 18
42 -4 25 -14 87 -23 136 l-17 90 -32 0 -32 0 -23 -122z m65 10 c6 -60 5 -68
-11 -68 -14 0 -16 6 -10 38 3 20 6 52 6 71 0 52 7 33 15 -41z"/>
<path d="M1877 458 c2 -128 3 -133 24 -136 22 -4 22 -2 16 95 -5 85 -4 95 8
73 7 -14 11 -28 9 -31 -2 -4 7 -35 20 -70 18 -48 29 -65 45 -67 20 -3 21 0 21
132 l0 136 -25 0 c-24 0 -25 -2 -25 -65 0 -37 4 -65 10 -65 6 0 10 -11 10 -25
0 -25 -19 -36 -22 -12 0 6 -2 17 -2 22 -1 6 -12 40 -26 78 -19 53 -28 67 -44
67 -20 0 -21 -5 -19 -132z"/>
<path d="M2040 570 c0 -13 7 -20 20 -20 19 0 20 -7 20 -113 l0 -114 30 0 30 0
0 115 c0 109 1 114 20 109 16 -4 20 0 20 19 0 23 -3 24 -70 24 -63 0 -70 -2
-70 -20z"/>
<path d="M434 432 c1 -130 3 -145 20 -158 11 -8 31 -14 45 -14 20 0 23 3 11 9
-8 6 -18 7 -23 4 -5 -3 -16 5 -25 18 -13 18 -18 56 -23 154 l-5 130 0 -143z"/>
<path d="M2170 295 c-19 -20 -20 -25 -7 -25 9 0 21 9 27 21 17 31 7 33 -20 4z"/>
</g>
</svg>
