<?xml version="1.0" standalone="no"?>
<!DOCTYPE svg PUBLIC "-//W3C//DTD SVG 20010904//EN"
 "http://www.w3.org/TR/2001/REC-SVG-20010904/DTD/svg10.dtd">
<svg version="1.0" xmlns="http://www.w3.org/2000/svg"
 width="300.000000pt" height="250.000000pt" viewBox="0 0 300.000000 250.000000"
 preserveAspectRatio="xMidYMid meet">
<metadata>
Created by potrace 1.10, written by Peter Selinger 2001-2011
</metadata>
<g transform="translate(0.000000,250.000000) scale(0.100000,-0.100000)"
fill="#000000" stroke="none">
<path d="M1503 2464 c-15 -19 -36 -45 -45 -56 -22 -26 -23 -38 -2 -38 42 0 94
68 94 123 0 17 -21 4 -47 -29z"/>
<path d="M780 2416 c0 -7 4 -26 9 -42 5 -16 12 -45 15 -65 4 -19 13 -44 20
-55 14 -18 16 -17 31 20 21 48 13 81 -28 124 -33 34 -47 40 -47 18z"/>
<path d="M1064 2399 c-4 -7 -8 -26 -10 -43 -1 -17 -19 -69 -38 -114 -40 -93
-54 -156 -38 -166 6 -4 18 8 28 26 9 18 35 49 57 69 39 34 41 39 45 100 6 94
-19 168 -44 128z m19 -142 c-5 -30 -41 -82 -50 -73 -3 2 5 22 16 45 12 22 21
47 21 56 0 9 4 13 10 10 5 -3 7 -20 3 -38z"/>
<path d="M1810 2342 c0 -41 -6 -71 -16 -87 -23 -36 -3 -145 28 -145 6 0 8 9 5
21 -4 13 4 31 24 53 19 22 29 45 29 65 0 38 -27 110 -51 136 -19 19 -19 18
-19 -43z m34 -130 c-16 -24 -19 -25 -22 -8 -2 10 2 29 9 43 11 20 14 21 22 8
6 -11 3 -25 -9 -43z"/>
<path d="M2134 2328 c-4 -6 -21 -38 -37 -71 -36 -73 -26 -93 27 -52 33 25 36
31 36 81 0 51 -10 68 -26 42z"/>
<path d="M1630 2290 c0 -12 7 -35 16 -52 9 -17 21 -79 26 -139 l10 -108 -26
-31 c-19 -24 -24 -38 -20 -57 5 -19 3 -24 -7 -21 -21 7 -23 57 -3 94 17 31 17
35 -5 114 -12 45 -22 108 -22 141 0 32 -4 59 -8 59 -12 0 -35 -30 -62 -78
l-23 -43 21 -62 22 -62 -24 -20 c-15 -13 -25 -35 -29 -65 -10 -68 -24 -83 -23
-23 2 44 -3 56 -36 99 -35 44 -38 53 -34 94 3 25 9 53 13 64 5 14 3 18 -7 14
-8 -2 -26 -28 -42 -58 -30 -59 -30 -64 -1 -224 8 -43 14 -88 13 -100 0 -21 0
-21 -9 2 -10 24 -26 29 -33 10 -5 -16 -5 -16 -39 48 -16 29 -28 64 -28 79 0
15 -16 54 -36 86 -38 60 -44 92 -29 143 12 42 -14 30 -39 -20 -24 -46 -27
-133 -7 -254 15 -93 5 -269 -15 -277 -8 -3 -14 -17 -14 -32 0 -14 -5 -33 -10
-41 -8 -12 -10 -9 -10 11 0 14 -13 44 -28 65 -28 39 -72 123 -72 139 0 4 -19
46 -42 94 -28 57 -42 99 -41 124 0 20 -3 37 -7 37 -23 0 -35 -114 -22 -208 8
-57 20 -89 56 -151 45 -75 46 -80 46 -160 0 -62 5 -91 20 -121 11 -22 20 -50
20 -62 -1 -21 -2 -22 -14 -5 -7 9 -16 17 -18 17 -3 0 -9 -25 -13 -55 -7 -62
-20 -64 -30 -6 -3 21 -23 72 -44 112 -31 59 -47 79 -82 100 -38 22 -44 30 -47
62 -2 20 -7 37 -12 37 -14 0 -30 -60 -30 -112 0 -61 13 -92 84 -197 60 -90 83
-148 71 -178 -5 -14 -12 -4 -29 42 -34 95 -64 128 -150 166 -51 22 -58 30 -65
78 -4 19 -12 36 -20 39 -11 4 -12 -8 -7 -64 6 -53 15 -82 42 -126 19 -31 34
-60 34 -64 0 -4 15 -37 34 -73 19 -36 43 -95 55 -129 11 -35 30 -79 41 -97 37
-60 21 -50 -57 34 -86 92 -91 101 -92 149 -1 53 -24 33 -38 -34 -16 -78 -11
-100 55 -224 94 -175 128 -250 114 -250 -4 0 -16 15 -26 34 -10 19 -47 58 -83
86 -38 30 -71 66 -79 86 -37 89 -47 -25 -12 -133 17 -51 33 -79 68 -113 61
-60 159 -134 167 -126 4 3 -38 50 -93 104 -79 77 -103 108 -121 152 -11 30
-19 57 -17 59 2 2 16 -8 31 -22 15 -14 46 -41 69 -61 23 -19 52 -56 65 -81 13
-25 30 -45 36 -45 7 0 12 -10 10 -21 -3 -32 20 -35 26 -4 9 51 -40 205 -104
323 -74 139 -107 214 -82 187 148 -156 182 -197 177 -210 -4 -8 -4 -15 -1 -15
5 0 55 20 65 26 2 1 -9 28 -24 60 -14 33 -35 86 -46 119 -11 33 -40 100 -64
149 -24 49 -44 94 -44 100 0 6 -13 27 -30 46 -16 19 -28 36 -26 38 2 2 27 -8
55 -23 59 -29 79 -57 117 -162 15 -40 30 -73 34 -73 14 0 40 68 40 106 0 37
-40 125 -110 245 -32 53 -47 99 -34 99 16 0 72 -44 92 -74 12 -17 35 -72 53
-121 17 -50 36 -94 41 -100 12 -13 37 20 45 58 4 21 9 25 18 17 15 -13 19 -8
33 43 8 28 7 50 -3 85 -16 56 -26 194 -14 186 5 -3 9 5 9 16 0 13 -8 24 -20
27 -21 6 -83 109 -94 158 -4 17 -9 38 -12 48 -3 9 -1 17 5 17 6 0 11 -6 11
-12 0 -23 59 -138 100 -195 27 -38 40 -67 40 -89 0 -71 23 -85 41 -24 8 26 15
36 20 28 5 -8 10 -2 14 18 4 16 11 39 16 52 5 13 9 45 9 71 0 58 10 111 20
111 4 0 5 -12 3 -27 -4 -25 -3 -26 10 -11 14 17 12 78 -3 78 -4 0 -11 25 -15
56 -4 31 -13 74 -21 96 -8 22 -14 52 -14 67 0 20 7 10 31 -39 37 -78 53 -145
54 -225 1 -66 7 -69 57 -34 24 17 28 18 28 5 0 -20 19 -20 48 0 25 17 27 45
13 121 -5 26 -12 75 -15 108 l-6 60 36 -55 c35 -54 35 -56 29 -132 -4 -49 -3
-78 4 -78 13 0 69 114 77 159 4 21 17 45 32 57 l25 21 -16 48 c-19 54 -22 115
-7 115 6 0 10 -15 10 -32 0 -18 9 -57 20 -86 25 -66 25 -77 -1 -103 -19 -19
-21 -28 -14 -82 8 -74 10 -77 40 -77 32 0 67 45 59 77 -5 17 0 30 15 44 29 27
34 56 29 161 -4 89 -4 90 14 68 21 -26 26 -152 7 -194 -10 -21 -8 -35 10 -77
11 -28 21 -69 21 -90 0 -22 5 -39 10 -39 6 0 10 7 10 15 0 8 4 15 9 15 6 0 7
-15 4 -33 -7 -45 17 -66 51 -44 45 30 66 92 63 192 -2 82 1 94 26 138 27 45
58 67 42 30 -8 -19 -22 -137 -31 -268 -4 -55 -13 -97 -30 -134 -34 -72 -22
-84 48 -46 65 35 91 57 129 114 23 35 29 55 29 98 0 29 5 53 10 53 17 0 11
-81 -10 -155 -13 -44 -20 -93 -18 -131 2 -59 1 -64 -35 -103 -33 -36 -37 -47
-37 -94 0 -57 28 -117 55 -117 20 0 19 5 -6 39 -33 44 -20 114 32 171 41 45
46 65 30 133 -7 29 -4 56 11 110 18 64 19 78 7 122 -7 28 -12 71 -10 98 1 27
-2 47 -8 47 -12 0 -27 -55 -37 -135 -8 -73 -19 -94 -82 -165 -52 -57 -74 -63
-49 -13 10 19 13 46 9 86 -3 40 1 71 13 103 14 38 15 50 5 75 -10 23 -10 42
-2 82 17 78 21 158 8 154 -5 -2 -35 -39 -65 -83 l-56 -79 -5 -115 c-5 -115
-20 -169 -49 -178 -10 -3 -12 8 -10 48 3 36 0 55 -8 57 -7 3 -13 0 -13 -6 0
-6 -5 -11 -11 -11 -5 0 -8 4 -5 9 3 5 -3 28 -13 52 -18 42 -18 48 -4 107 23
90 3 151 -73 226 -29 30 -54 59 -54 65 0 6 -4 11 -10 11 -5 0 -10 -9 -10 -20z"/>
<path d="M1404 1951 c3 -18 6 -42 6 -52 0 -11 5 -19 10 -19 16 0 12 64 -6 86
-15 18 -15 17 -10 -15z"/>
<path d="M1521 1903 c-8 -21 -16 -44 -18 -50 -3 -7 0 -13 6 -13 12 0 23 23 35
73 10 40 -8 33 -23 -10z"/>
<path d="M1707 1914 c-11 -11 -9 -62 3 -69 6 -3 12 0 15 7 7 18 -9 71 -18 62z"/>
<path d="M2247 1736 c-4 -44 -16 -83 -37 -122 -16 -31 -30 -66 -30 -78 -1 -29
-19 -59 -57 -91 -18 -15 -33 -33 -33 -41 0 -19 3 -18 55 17 47 31 75 72 75
108 0 28 30 101 41 101 9 0 15 -71 12 -143 -2 -44 -37 -109 -83 -152 -17 -16
-38 -45 -46 -64 -18 -43 -19 -141 -1 -141 9 0 12 -11 9 -35 -4 -30 -1 -35 16
-35 18 0 19 -3 9 -30 -6 -16 -8 -33 -3 -37 12 -12 135 57 161 91 21 28 58 102
93 189 13 30 32 36 32 10 0 -31 -29 -173 -40 -193 -5 -10 -41 -57 -79 -104
-67 -81 -75 -95 -72 -123 2 -22 94 -16 125 8 14 11 26 16 26 11 0 -11 -37 -48
-80 -81 -24 -18 -29 -28 -24 -45 9 -29 13 -31 26 -18 7 7 22 12 34 12 22 0 34
-30 34 -90 0 -29 -43 -70 -94 -90 -42 -16 -30 -30 25 -30 l50 0 -21 -27 c-17
-22 -28 -27 -74 -27 -62 -1 -96 -24 -96 -64 l0 -26 29 28 c28 27 32 28 84 19
64 -11 87 -3 87 33 0 27 23 78 48 107 22 24 -3 23 -35 -3 -41 -32 -41 -13 0
21 33 27 37 36 35 69 -1 22 5 48 15 64 23 34 22 38 -10 32 -16 -3 -46 -2 -68
2 l-40 8 45 24 c41 23 46 30 62 89 9 35 24 71 33 80 17 19 20 41 6 41 -5 0
-33 -27 -63 -60 -37 -42 -63 -62 -85 -66 -51 -10 -42 11 41 102 72 78 75 83
97 170 22 88 22 91 4 150 -9 32 -19 65 -21 72 -7 23 -24 12 -24 -16 0 -16 -9
-37 -20 -47 -11 -10 -42 -64 -70 -122 -40 -82 -60 -110 -92 -133 -48 -35 -58
-37 -51 -11 3 10 0 22 -6 25 -6 4 -11 32 -11 63 0 45 -3 54 -15 49 -22 -8 -19
33 5 64 11 14 20 30 20 36 0 6 17 31 39 55 69 79 74 98 67 224 -13 214 -46
309 -59 171z"/>
<path d="M1897 1745 c-9 -19 -13 -35 -8 -35 12 0 27 21 35 48 11 35 -8 26 -27
-13z"/>
<path d="M2066 1674 c-4 -9 -4 -19 -1 -22 6 -6 35 18 35 29 0 16 -28 10 -34
-7z"/>
<path d="M2006 1575 c-28 -43 -15 -63 17 -27 18 20 23 52 8 52 -5 0 -16 -11
-25 -25z"/>
<path d="M2353 1493 c-7 -3 -13 -16 -13 -29 0 -30 -21 -73 -66 -135 -34 -47
-54 -121 -36 -133 12 -7 113 87 132 124 15 27 18 157 4 169 -5 5 -15 6 -21 4z
m-6 -156 c-14 -33 -56 -81 -64 -73 -3 2 13 29 33 60 42 61 53 66 31 13z"/>
<path d="M830 1428 c0 -9 18 -51 39 -94 30 -60 40 -73 40 -53 1 24 -32 96 -65
143 -11 16 -14 17 -14 4z"/>
<path d="M2162 1392 c-32 -29 -41 -52 -22 -52 17 0 60 47 60 65 0 20 -1 20
-38 -13z"/>
<path d="M770 1198 c0 -18 59 -138 64 -129 8 12 -30 105 -50 122 -8 6 -14 10
-14 7z"/>
<path d="M2401 1151 c-14 -24 -14 -31 -1 -31 14 0 32 38 21 45 -6 3 -15 -3
-20 -14z"/>
<path d="M2260 985 c-45 -46 -42 -57 10 -30 27 14 60 51 60 67 0 20 -30 4 -70
-37z"/>
<path d="M2366 714 c-9 -23 -7 -74 2 -74 13 0 28 42 24 68 -4 26 -17 29 -26 6z"/>
<path d="M680 620 c0 -13 60 -80 71 -80 19 0 8 27 -24 58 -34 33 -47 39 -47
22z"/>
</g>
</svg>
