<?xml version="1.0" standalone="no"?>
<!DOCTYPE svg PUBLIC "-//W3C//DTD SVG 20010904//EN"
 "http://www.w3.org/TR/2001/REC-SVG-20010904/DTD/svg10.dtd">
<svg version="1.0" xmlns="http://www.w3.org/2000/svg"
 width="300.000000pt" height="250.000000pt" viewBox="0 0 300.000000 250.000000"
 preserveAspectRatio="xMidYMid meet">
<metadata>
Created by potrace 1.10, written by Peter Selinger 2001-2011
</metadata>
<g transform="translate(0.000000,250.000000) scale(0.100000,-0.100000)"
fill="#000000" stroke="none">
<path d="M1488 1734 c-50 -12 -87 -27 -148 -63 -8 -5 -28 -13 -45 -17 -60 -18
-158 -220 -191 -392 -17 -90 -22 -100 -78 -146 -30 -24 -49 -49 -56 -74 -13
-48 -13 -125 1 -155 9 -20 6 -31 -21 -74 -60 -96 -64 -251 -10 -339 51 -81
155 -118 229 -79 18 9 34 15 35 13 1 -2 13 -47 25 -102 16 -68 22 -115 18
-151 -6 -60 3 -75 44 -75 17 0 34 -8 43 -22 13 -18 17 -19 31 -8 9 8 28 37 43
64 20 40 26 65 26 115 0 50 2 59 8 40 20 -52 89 -185 111 -213 14 -17 28 -26
35 -22 20 12 54 85 82 176 l27 85 5 -72 c4 -53 12 -83 31 -115 46 -76 42 -73
72 -49 15 11 38 21 51 21 22 0 23 4 26 93 5 112 36 263 52 247 17 -17 117 -11
161 9 69 32 118 92 136 169 9 37 16 92 14 123 -1 47 -8 65 -48 122 -53 78 -81
148 -92 227 -9 64 -23 97 -76 165 -50 66 -82 137 -115 258 -42 152 -103 207
-273 243 -78 16 -80 16 -153 -2z m194 -54 c86 -26 127 -56 154 -110 29 -57 38
-90 26 -90 -6 0 -13 11 -16 25 -6 23 -89 126 -108 133 -19 8 -5 -20 35 -70 24
-29 56 -82 70 -118 l26 -65 2 45 c2 33 3 37 6 16 3 -16 11 -35 19 -43 13 -13
20 -63 9 -63 -2 0 -15 5 -29 11 -19 9 -29 9 -39 0 -15 -12 -69 -12 -61 1 3 5
-9 16 -26 26 -18 9 -52 32 -76 50 -70 53 -126 72 -209 72 -80 0 -135 -8 -135
-20 0 -5 42 -6 94 -3 86 5 98 4 150 -20 60 -28 120 -66 113 -73 -2 -3 -30 12
-63 31 -32 20 -76 40 -97 46 -42 11 -136 5 -179 -12 -37 -15 -26 -31 12 -17
17 5 65 8 108 6 70 -3 83 -8 144 -45 106 -66 165 -93 204 -93 28 0 35 3 30 15
-4 10 1 15 14 15 26 0 25 -14 -2 -40 -37 -34 -91 -24 -172 34 -15 10 -30 16
-34 12 -8 -8 53 -62 81 -71 20 -7 23 -25 4 -25 -19 0 -87 51 -118 87 -31 36
-77 68 -86 59 -4 -4 26 -40 66 -80 40 -40 69 -76 64 -79 -17 -10 -73 32 -106
80 -50 72 -75 99 -83 90 -5 -4 -3 -16 3 -25 7 -9 26 -40 42 -68 16 -28 37 -54
45 -57 20 -8 21 -27 1 -27 -22 0 -72 57 -105 123 -32 60 -57 77 -46 30 4 -16
20 -54 37 -85 33 -66 34 -69 14 -62 -16 7 -65 99 -65 124 0 19 -26 57 -34 50
-3 -3 2 -32 10 -64 8 -32 13 -60 11 -63 -3 -2 -20 17 -38 44 -29 42 -34 58
-39 129 -8 128 -26 126 -32 -3 -3 -55 -9 -79 -26 -102 -26 -35 -28 -51 -7 -51
20 0 19 -6 -6 -42 -18 -24 -19 -32 -8 -39 11 -6 9 -12 -8 -31 -18 -20 -20 -29
-13 -78 12 -78 26 -139 45 -184 21 -49 25 -150 7 -168 -10 -10 -10 -6 -1 20
10 29 8 43 -20 112 -17 43 -31 90 -31 104 0 31 -9 56 -21 56 -19 0 0 -139 26
-189 28 -56 29 -61 16 -61 -22 0 -63 97 -72 170 -7 65 -6 80 11 115 27 55 26
74 -1 49 -35 -31 -49 -70 -49 -131 0 -80 13 -120 65 -198 25 -36 45 -74 46
-83 0 -14 2 -13 10 3 8 17 9 17 4 -5 -2 -14 -5 -31 -5 -37 0 -7 -4 -13 -10
-13 -5 0 -10 10 -10 21 0 25 -37 89 -51 89 -5 0 -9 -8 -9 -17 -1 -12 -20 2
-59 44 -47 49 -61 71 -70 111 -17 80 2 121 100 222 24 25 82 130 75 137 -8 8
-36 -17 -36 -33 0 -8 -4 -14 -10 -14 -12 0 -13 47 -1 54 4 3 14 33 20 67 30
148 94 288 127 275 8 -3 36 9 62 28 26 18 61 38 77 44 51 18 167 14 237 -8z
m268 -398 c5 -20 10 -51 10 -69 0 -37 16 -52 25 -23 10 32 20 24 54 -42 44
-88 52 -177 19 -234 -23 -42 -72 -104 -82 -104 -3 0 15 38 39 85 40 75 44 91
39 128 -8 54 -39 127 -55 127 -7 0 -8 -7 -4 -17 16 -38 35 -107 35 -126 0 -19
-85 -197 -118 -246 -17 -25 -19 -71 -2 -71 4 0 10 9 13 20 3 11 11 20 17 20 9
0 11 -13 8 -44 -3 -25 0 -57 8 -75 17 -41 38 -41 29 -1 -8 37 13 109 26 89 14
-22 10 -87 -7 -121 -14 -26 -20 -29 -45 -24 -27 5 -30 3 -27 -17 2 -18 10 -23
44 -25 73 -5 124 58 124 156 0 77 -55 118 -102 75 -17 -15 -18 -15 -18 7 0 64
89 93 134 45 13 -14 26 -25 30 -25 12 0 6 36 -10 58 -20 28 -10 43 11 16 30
-40 49 -91 53 -145 4 -48 -1 -67 -27 -122 -48 -100 -104 -136 -196 -125 -20 2
-35 -1 -36 -7 -3 -31 -17 49 -18 102 -1 37 -11 94 -26 139 -29 90 -29 85 -12
78 9 -3 31 30 65 96 59 115 67 168 31 214 -27 34 -44 24 -24 -14 29 -56 13
-122 -53 -226 -30 -47 -42 -55 -42 -25 0 31 -21 37 -42 11 -17 -21 -21 -22
-63 -10 -25 7 -63 10 -85 7 -41 -5 -49 0 -29 20 31 31 -28 36 -64 5 -22 -20
-42 -3 -42 36 0 36 -19 44 -23 10 -2 -16 -9 -28 -18 -28 -21 0 -17 -15 9 -34
l22 -17 -28 4 c-15 3 -58 -1 -94 -8 -67 -13 -67 -12 -87 13 -13 16 -19 37 -18
57 2 17 -8 66 -22 110 -28 87 -35 170 -13 162 6 -2 38 -12 70 -21 31 -9 57
-20 57 -24 0 -4 -29 -5 -65 -2 -53 4 -64 3 -60 -8 3 -8 5 -18 5 -23 0 -6 20
-30 44 -54 52 -54 90 -59 132 -20 l27 25 -22 30 c-28 39 -15 38 26 -2 38 -36
44 -68 13 -68 -25 0 -26 -16 -1 -30 34 -17 41 -11 41 33 0 49 -23 76 -119 141
-48 33 -79 41 -139 39 -9 -1 -11 5 -6 15 20 48 33 89 34 106 0 15 12 8 54 -32
68 -64 109 -76 236 -68 94 5 216 30 235 47 5 5 18 9 28 9 18 0 19 -5 12 -67
-4 -38 -9 -72 -12 -77 -6 -9 -106 -2 -124 10 -23 14 40 36 82 29 46 -8 52 6
14 31 -24 15 -28 15 -68 0 -58 -23 -133 -80 -152 -115 -11 -23 -12 -36 -5 -57
13 -34 23 -24 24 23 1 30 5 38 21 40 11 2 14 0 8 -3 -19 -8 -16 -37 2 -31 8 4
17 2 20 -3 4 -6 -1 -10 -10 -10 -38 0 -5 -25 36 -28 40 -2 49 2 98 45 l54 47
-7 -59 c-4 -33 -12 -79 -18 -102 -9 -39 -8 -45 13 -63 13 -10 26 -19 29 -20
11 0 64 120 56 127 -4 4 -13 0 -19 -9 -41 -57 -38 -55 -33 -28 3 14 6 38 6 53
0 23 4 28 22 25 11 -2 23 3 25 10 3 6 0 12 -6 12 -6 0 -8 7 -5 15 4 8 1 15 -5
15 -6 0 -11 9 -11 20 0 11 7 20 15 20 18 0 19 14 2 28 -9 8 -12 33 -10 84 4
128 21 159 43 80z m-210 -242 c0 -5 8 -6 18 -3 15 6 16 5 2 -11 -8 -11 -16
-14 -18 -7 -2 6 -10 11 -18 11 -8 0 -14 5 -14 10 0 6 7 10 15 10 8 0 15 -4 15
-10z m-710 -216 c0 -3 -11 -19 -25 -35 -25 -31 -43 -95 -30 -107 4 -4 10 -1
12 6 3 7 16 26 30 43 34 40 82 38 96 -4 9 -27 -1 -55 -10 -29 -3 6 -16 12 -29
12 -62 0 -88 -94 -39 -143 46 -45 128 -44 157 3 22 35 29 22 23 -42 -3 -34 -7
-62 -8 -63 -1 0 -16 -8 -34 -17 -70 -40 -164 -13 -197 55 -48 101 -42 219 14
305 13 20 40 31 40 16z m580 -19 c0 -13 7 -15 35 -9 19 3 35 2 35 -2 0 -5 18
-8 40 -8 31 2 40 -2 40 -15 0 -14 2 -14 10 -1 7 12 12 12 22 2 7 -7 8 -12 2
-12 -6 0 -21 -9 -33 -20 l-23 -19 27 -7 c18 -4 23 -10 16 -17 -6 -6 -15 -4
-26 7 -9 9 -21 16 -26 16 -5 0 -9 7 -9 15 0 8 5 15 10 15 6 0 10 5 10 11 0 5
-4 7 -10 4 -5 -3 -10 -1 -10 4 0 6 -7 11 -15 11 -8 0 -15 -4 -15 -10 0 -5 5
-10 10 -10 6 0 10 -10 10 -21 0 -17 -3 -19 -13 -10 -11 8 -18 6 -31 -8 -17
-19 -17 -19 1 -15 11 3 35 -1 54 -10 l34 -15 -55 5 c-30 3 -62 8 -70 11 -8 3
-31 5 -51 4 -21 -1 -40 3 -44 9 -6 9 4 11 34 8 22 -2 41 0 41 5 0 5 10 6 23 3
12 -3 16 -3 10 0 -8 3 -11 16 -8 32 5 24 4 25 -4 6 -13 -30 -31 -39 -31 -17
-1 17 -1 17 -11 -1 -9 -15 -13 -16 -21 -5 -7 11 -11 11 -15 2 -7 -18 -20 -16
-27 5 -3 9 -9 23 -12 30 -4 9 7 12 40 12 36 0 44 3 40 15 -4 8 -1 15 5 15 6 0
11 -7 11 -15z m-308 -48 c-19 -24 -33 -85 -48 -196 -7 -63 -17 -117 -20 -120
-8 -7 3 122 17 202 11 65 49 159 56 139 3 -7 1 -18 -5 -25z m198 16 c0 -10 -5
-25 -10 -33 -7 -12 -10 -8 -10 15 0 23 -3 27 -10 15 -8 -13 -10 -12 -10 3 0
10 8 17 20 17 12 0 20 -7 20 -17z m-126 -29 c-13 -23 -15 -24 -11 -6 5 23 -8
31 -16 10 -3 -8 -6 -7 -6 4 -1 10 8 18 22 20 30 5 30 5 11 -28z m476 24 c0 -2
7 -25 15 -53 18 -57 6 -49 -18 13 -10 23 -12 42 -7 42 6 0 10 -1 10 -2z m-430
-31 c0 -16 -6 -23 -20 -24 -12 -1 -20 4 -20 13 0 8 5 12 10 9 6 -3 10 1 10 9
0 9 5 16 10 16 6 0 10 -10 10 -23z m-90 -20 c0 -12 -5 -38 -11 -57 -6 -19 -16
-80 -23 -135 -8 -55 -15 -104 -17 -110 -2 -5 1 -12 6 -15 14 -7 34 56 34 111
1 56 11 109 20 109 4 0 7 -37 7 -82 -1 -68 4 -96 26 -153 32 -82 42 -135 34
-180 -6 -28 -12 -34 -42 -40 -38 -7 -42 -28 -6 -33 25 -4 27 -11 9 -36 -12
-16 -14 -16 -26 -2 -8 9 -23 16 -36 16 -30 0 -34 7 -22 40 8 22 6 49 -12 126
-12 55 -26 111 -31 127 -7 20 -6 27 4 27 13 0 19 25 31 125 14 122 30 185 46
185 5 0 9 -10 9 -23z m515 -73 c8 -43 17 -105 21 -137 3 -31 11 -63 19 -70 11
-11 9 -29 -11 -103 -23 -82 -33 -170 -23 -202 6 -19 -72 -46 -83 -29 -12 19
-10 24 18 31 21 6 23 10 14 21 -6 8 -21 15 -33 17 -52 7 -52 110 -1 227 19 42
24 71 24 140 1 104 14 91 25 -24 4 -43 11 -90 16 -102 11 -30 34 -31 25 0 -9
31 -46 277 -46 307 0 48 21 3 35 -76z m225 20 c0 -27 -28 -113 -33 -103 -1 2
-1 42 1 89 3 76 5 83 18 66 8 -11 14 -34 14 -52z m-930 -19 c-6 -19 -23 -44
-38 -55 -26 -21 -26 -21 -45 -1 -17 17 -19 25 -11 53 12 40 39 45 39 6 1 -60
25 -46 47 27 7 26 13 34 15 22 3 -9 -1 -33 -7 -52z m256 30 c-22 -17 -46 -20
-46 -6 0 10 22 18 50 20 11 0 10 -4 -4 -14z m-210 -49 c-6 -31 -36 -66 -58
-66 -4 0 4 19 17 43 14 23 25 51 25 62 0 14 3 16 11 8 7 -7 9 -25 5 -47z m348
35 c14 -5 16 -10 8 -15 -7 -4 -12 -17 -12 -29 l1 -22 19 24 c11 12 17 27 14
32 -3 5 1 9 9 9 8 0 29 3 46 6 27 6 30 4 25 -11 -6 -16 -3 -17 22 -11 76 19
127 0 70 -26 -31 -13 -44 -53 -28 -79 15 -23 4 -79 -14 -79 -18 0 -18 -17 -1
-22 10 -2 7 -22 -12 -83 -13 -44 -26 -74 -29 -67 -6 20 -32 14 -32 -8 0 -11 7
-20 15 -20 18 0 18 -7 4 -49 -10 -27 -15 -32 -34 -27 -14 4 -32 -1 -47 -14
l-25 -19 -20 42 c-11 23 -26 58 -33 77 -6 19 -16 44 -21 55 -5 11 -15 38 -22
61 -13 39 -12 42 10 62 43 38 17 99 -38 88 -22 -4 -29 -1 -35 16 -4 14 -1 24
9 30 9 5 19 24 23 43 4 24 12 35 28 38 35 7 80 6 100 -2z m360 -134 c6 -111
-9 -64 -18 58 -4 55 -2 73 4 57 5 -12 12 -64 14 -115z m-148 57 c-3 -9 -6 -20
-6 -25 0 -5 -4 -9 -10 -9 -11 0 -14 33 -3 43 12 13 25 7 19 -9z m14 -124 c-7
-28 -17 -53 -22 -57 -11 -6 -9 7 14 92 15 57 22 25 8 -35z m-322 33 c2 -11 -4
-25 -11 -32 -12 -9 -17 -6 -25 18 -8 22 -7 31 1 35 20 7 32 1 35 -21z m179
-345 c-18 -42 -33 -68 -40 -68 -4 0 -13 11 -19 25 -10 21 -8 28 8 40 24 18 58
20 51 3z"/>
<path d="M1422 1651 c-54 -19 -69 -27 -60 -36 3 -3 25 2 49 11 24 8 74 18 111
21 59 5 73 3 123 -21 30 -15 55 -32 55 -37 0 -13 -5 -12 -42 11 -40 24 -152
27 -241 5 -64 -15 -65 -15 -73 -15 -4 0 -1 -7 6 -15 10 -12 10 -15 -4 -15 -9
0 -16 -5 -16 -11 0 -7 10 -9 28 -5 15 4 65 10 112 13 103 6 177 -17 230 -72
44 -45 30 -45 -23 0 -64 55 -159 73 -285 53 -99 -16 -78 -26 42 -20 137 6 177
-6 246 -73 32 -32 49 -42 59 -36 8 5 21 7 29 3 18 -7 -35 73 -69 105 -13 11
-43 31 -67 43 -40 21 -54 22 -155 18 -109 -5 -110 -5 -57 8 79 19 167 17 215
-5 37 -17 69 -47 164 -157 48 -55 51 -28 6 54 -51 93 -101 151 -149 173 -54
24 -163 25 -234 0z"/>
<path d="M2147 665 c-11 -104 -105 -196 -178 -175 -26 8 -30 6 -27 -8 3 -14
13 -16 53 -14 100 7 164 76 173 188 6 79 -13 88 -21 9z"/>
<path d="M976 568 c22 -73 45 -96 105 -104 54 -6 112 20 117 53 l3 21 -38 -19
c-37 -19 -87 -24 -118 -13 -9 4 -25 24 -36 45 -21 42 -45 54 -33 17z"/>
<path d="M1442 634 c-29 -20 -30 -70 -1 -77 25 -7 59 24 59 53 0 29 -32 42
-58 24z"/>
<path d="M1575 600 c-25 -27 -7 -46 23 -24 24 17 30 44 9 44 -8 0 -22 -9 -32
-20z"/>
<path d="M1677 606 c-18 -19 -23 -46 -7 -46 12 0 32 38 28 52 -2 6 -11 4 -21
-6z"/>
<path d="M1505 543 c9 -36 22 -50 35 -37 14 14 -8 64 -28 64 -10 0 -12 -7 -7
-27z"/>
<path d="M1624 549 c-9 -15 -9 -77 -1 -86 4 -3 20 -2 35 3 41 14 43 57 3 77
-19 10 -33 12 -37 6z"/>
<path d="M1533 480 c-66 -27 -50 -120 20 -120 29 0 67 31 67 55 0 19 -21 65
-31 65 -4 0 -13 2 -21 4 -7 3 -23 1 -35 -4z m56 -34 c9 -11 10 -20 1 -36 -14
-26 -63 -24 -68 3 -8 39 42 63 67 33z"/>
<path d="M1638 427 c7 -8 7 -18 2 -27 -13 -20 -12 -60 0 -60 15 0 32 51 24 69
-4 9 -6 19 -6 24 1 4 -5 7 -14 7 -12 0 -14 -3 -6 -13z"/>
<path d="M1460 390 c0 -32 13 -60 27 -60 17 0 9 36 -13 60 -12 13 -14 13 -14
0z"/>
<path d="M1542 314 c-25 -17 -28 -33 -9 -59 19 -25 67 -13 67 16 0 23 -17 59
-28 59 -4 0 -18 -7 -30 -16z"/>
<path d="M1510 230 c0 -5 4 -10 10 -10 5 0 7 -7 4 -15 -4 -9 0 -15 10 -15 19
0 20 9 2 33 -15 19 -26 22 -26 7z"/>
</g>
</svg>
