<?xml version="1.0" standalone="no"?>
<!DOCTYPE svg PUBLIC "-//W3C//DTD SVG 20010904//EN"
 "http://www.w3.org/TR/2001/REC-SVG-20010904/DTD/svg10.dtd">
<svg version="1.0" xmlns="http://www.w3.org/2000/svg"
 width="406.000000pt" height="383.000000pt" viewBox="0 0 406.000000 383.000000"
 preserveAspectRatio="xMidYMid meet">
<metadata>
Created by potrace 1.10, written by Peter Selinger 2001-2011
</metadata>
<g transform="translate(0.000000,383.000000) scale(0.100000,-0.100000)"
fill="#000000" stroke="none">
<path d="M1221 2474 c-37 -31 -42 -78 -11 -116 18 -24 20 -44 22 -307 l3 -281
-49 0 c-65 0 -108 -28 -138 -88 -18 -38 -23 -67 -26 -158 -4 -105 -3 -113 22
-152 47 -75 -28 -70 914 -66 466 2 857 6 869 9 40 9 63 64 63 152 0 54 5 85
15 99 20 26 20 123 -1 152 -31 44 -63 52 -217 52 l-144 0 -7 127 c-11 210 4
202 -384 205 l-302 3 0 105 c1 72 5 113 15 130 24 42 19 103 -11 134 l-27 26
-288 0 -287 0 -31 -26z m623 -26 c20 -29 20 -62 0 -93 -22 -34 -25 -293 -3
-285 8 2 32 4 54 4 22 0 85 -1 140 -1 55 -1 170 -2 255 -3 85 -1 163 -4 173
-6 30 -9 37 -39 44 -184 l6 -140 159 0 c160 0 189 -5 215 -39 20 -26 16 -95
-7 -124 -16 -21 -20 -40 -20 -110 0 -66 -4 -90 -18 -107 l-17 -21 -590 1
c-325 1 -597 1 -605 1 -8 0 -127 -3 -264 -6 l-249 -6 -34 38 c-19 20 -36 48
-40 61 -8 35 4 158 22 219 22 74 50 93 138 93 l70 0 -7 31 c-3 17 -6 152 -6
299 l0 268 -25 30 c-31 37 -32 66 -3 86 19 14 66 16 310 16 285 0 287 0 302
-22z"/>
<path d="M1538 2393 c7 -3 16 -2 19 1 4 3 -2 6 -13 5 -11 0 -14 -3 -6 -6z"/>
<path d="M1770 2392 c0 -4 -10 -13 -21 -21 -17 -10 -23 -10 -29 -1 -5 7 -13 9
-21 5 -9 -6 -6 -11 11 -17 16 -6 30 -4 46 7 21 14 33 35 19 35 -3 0 -5 -3 -5
-8z"/>
<path d="M1343 2383 c9 -2 23 -2 30 0 6 3 -1 5 -18 5 -16 0 -22 -2 -12 -5z"/>
<path d="M1540 2369 c-22 -6 -20 -7 13 -8 38 -1 47 3 25 11 -7 3 -24 1 -38 -3z"/>
<path d="M1488 2363 c7 -3 16 -2 19 1 4 3 -2 6 -13 5 -11 0 -14 -3 -6 -6z"/>
<path d="M1608 2363 c7 -3 16 -2 19 1 4 3 -2 6 -13 5 -11 0 -14 -3 -6 -6z"/>
<path d="M1396 2341 c-3 -5 4 -7 16 -4 19 4 20 3 8 -6 -9 -7 -10 -11 -3 -11 6
0 14 4 17 8 7 12 146 12 146 0 0 -5 -5 -6 -10 -3 -13 8 -8 -18 5 -27 10 -7 -4
-9 -87 -12 -20 0 -40 -4 -44 -8 -4 -5 52 -8 124 -8 125 0 132 1 132 20 0 11
-5 20 -11 20 -5 0 -7 -4 -4 -10 3 -6 -1 -7 -9 -4 -9 3 -16 1 -16 -5 0 -6 -7
-8 -15 -5 -22 9 -20 51 3 49 9 0 22 -4 28 -8 11 -7 24 0 24 14 0 11 -297 11
-304 0z m224 -26 c0 -16 -6 -25 -15 -25 -9 0 -15 9 -15 25 0 16 6 25 15 25 9
0 15 -9 15 -25z"/>
<path d="M1343 2310 c1 -11 5 -20 9 -20 4 0 8 9 8 20 0 11 -4 20 -9 20 -6 0
-9 -9 -8 -20z"/>
<path d="M1488 2322 c-16 -2 -28 -7 -28 -10 0 -11 77 -9 87 2 5 5 1 7 -9 3 -9
-3 -18 -3 -20 1 -2 4 -15 6 -30 4z"/>
<path d="M1350 2245 c0 -14 5 -25 10 -25 6 0 10 11 10 25 0 14 -4 25 -10 25
-5 0 -10 -11 -10 -25z"/>
<path d="M1400 2241 c0 -5 4 -13 10 -16 5 -3 8 -18 6 -33 -2 -15 -1 -20 1 -12
3 8 8 18 12 22 8 9 2 -70 -6 -92 -15 -35 -11 -60 9 -71 13 -7 18 -7 14 -1 -3
6 2 13 11 15 10 2 8 3 -4 2 -13 -1 -23 2 -23 6 0 5 23 9 50 9 l50 0 0 65 c0
52 -3 66 -18 74 -16 9 -18 6 -16 -27 1 -20 0 -31 -3 -24 -2 6 -9 10 -14 6 -5
-3 -9 1 -9 10 0 8 6 16 13 19 6 2 -5 11 -25 20 -21 9 -38 19 -38 22 0 3 4 4 9
1 17 -11 202 -9 212 1 8 8 -27 11 -115 12 -77 1 -126 -2 -126 -8z m56 -74 c-5
-21 -2 -24 24 -24 23 0 30 5 33 26 2 14 5 0 6 -31 l1 -58 -40 0 -40 0 0 55 c0
34 4 55 11 55 7 0 9 -9 5 -23z"/>
<path d="M1450 2119 c0 -5 6 -7 13 -3 8 5 8 2 -2 -9 -12 -15 -11 -17 3 -17 9
0 16 8 16 20 0 11 -7 20 -15 20 -8 0 -15 -5 -15 -11z"/>
<path d="M1490 2110 c0 -11 5 -20 10 -20 6 0 10 9 10 20 0 11 -4 20 -10 20 -5
0 -10 -9 -10 -20z"/>
<path d="M1660 2233 c0 -10 5 -25 11 -33 8 -12 10 -9 6 13 -2 15 -1 27 4 27 4
0 10 -12 12 -27 4 -26 4 -26 6 5 1 26 -3 32 -19 32 -12 0 -20 -7 -20 -17z"/>
<path d="M1548 2208 c7 -7 12 -39 12 -75 l0 -63 50 0 50 0 0 65 c0 71 -1 72
-77 65 -13 -1 -23 3 -23 9 0 6 -5 11 -12 11 -9 0 -9 -3 0 -12z m43 -68 c5 0 9
11 9 25 0 14 4 25 9 25 12 0 23 -29 15 -41 -3 -5 -1 -9 5 -9 5 0 12 12 14 28
2 15 5 1 6 -30 l1 -58 -40 0 -40 0 1 58 c1 31 4 45 6 30 2 -16 9 -28 14 -28z"/>
<path d="M1583 2110 c1 -20 27 -29 27 -10 0 6 -5 10 -11 10 -5 0 -7 5 -4 10 3
6 2 10 -4 10 -5 0 -9 -9 -8 -20z"/>
<path d="M1620 2110 c0 -11 5 -20 10 -20 6 0 10 9 10 20 0 11 -4 20 -10 20 -5
0 -10 -9 -10 -20z"/>
<path d="M1355 2180 c-3 -5 -1 -10 4 -10 6 0 11 5 11 10 0 6 -2 10 -4 10 -3 0
-8 -4 -11 -10z"/>
<path d="M1693 2120 c0 -36 2 -50 4 -32 2 17 2 47 0 65 -2 17 -4 3 -4 -33z"/>
<path d="M1390 2163 c0 -15 18 -35 23 -27 3 5 -1 15 -9 22 -8 7 -14 9 -14 5z"/>
<path d="M1356 2134 c-9 -24 -7 -54 4 -54 6 0 10 16 10 35 0 38 -4 44 -14 19z"/>
<path d="M1724 2040 c0 -63 1 -89 3 -57 2 31 2 83 0 115 -2 31 -3 5 -3 -58z"/>
<path d="M1541 2124 c0 -11 3 -14 6 -6 3 7 2 16 -1 19 -3 4 -6 -2 -5 -13z"/>
<path d="M1672 2090 c0 -14 2 -19 5 -12 2 6 2 18 0 25 -3 6 -5 1 -5 -13z"/>
<path d="M1394 2058 c2 -19 -1 -25 -11 -21 -7 3 -13 0 -13 -6 0 -6 6 -11 14
-11 15 0 30 -27 27 -49 -1 -7 2 -10 7 -7 6 3 12 0 14 -7 7 -17 -2 -38 -13 -31
-14 8 -10 -8 6 -30 8 -11 12 -29 9 -43 -6 -22 -4 -23 42 -23 l49 0 2 80 1 80
-54 0 c-35 0 -56 4 -58 13 -19 63 -25 80 -22 55z m116 -147 c0 -68 0 -70 -25
-67 -26 3 -48 16 -26 16 7 0 9 5 4 12 -4 7 -8 34 -9 60 -1 47 -1 48 27 48 l29
0 0 -69z"/>
<path d="M1470 1955 c0 -9 6 -12 15 -9 8 4 15 10 15 15 0 5 -7 9 -15 9 -8 0
-15 -7 -15 -15z"/>
<path d="M1483 1923 c-3 -10 -7 -21 -9 -24 -2 -3 3 -6 10 -6 8 0 13 10 12 24
-1 28 -5 29 -13 6z"/>
<path d="M2158 2053 c7 -3 16 -2 19 1 4 3 -2 6 -13 5 -11 0 -14 -3 -6 -6z"/>
<path d="M1490 2028 c0 -15 9 -18 53 -18 58 0 68 4 60 26 -4 10 -20 14 -59 12
-44 -2 -54 -5 -54 -20z m78 -5 c-10 -2 -28 -2 -40 0 -13 2 -5 4 17 4 22 1 32
-1 23 -4z"/>
<path d="M1654 2037 c-7 -18 14 -70 25 -63 5 4 12 0 14 -6 4 -10 6 -10 6 0 1
7 -6 20 -14 29 -9 8 -13 18 -10 21 3 4 10 0 15 -8 8 -12 10 -10 10 8 0 13 -4
20 -10 17 -5 -3 -10 -1 -10 4 0 16 -20 14 -26 -2z"/>
<path d="M1811 2034 c0 -11 3 -14 6 -6 3 7 2 16 -1 19 -3 4 -6 -2 -5 -13z"/>
<path d="M1617 2020 c-3 -11 -1 -20 4 -20 5 0 9 9 9 20 0 11 -2 20 -4 20 -2 0
-6 -9 -9 -20z"/>
<path d="M1448 2023 c-10 -2 -18 -9 -18 -14 0 -6 8 -5 20 1 11 6 20 13 20 15
0 3 -1 4 -2 4 -2 -1 -11 -3 -20 -6z"/>
<path d="M1354 1999 c-3 -6 -1 -16 5 -22 8 -8 11 -5 11 11 0 24 -5 28 -16 11z"/>
<path d="M1880 1885 c0 -63 0 -118 -1 -122 0 -4 4 -9 10 -11 6 -2 11 25 13 70
4 108 22 94 43 -34 10 -65 31 -46 46 40 8 42 19 76 24 75 6 -2 11 -37 13 -78
2 -60 6 -75 19 -75 11 0 14 6 9 23 -3 12 -6 68 -6 125 0 100 0 102 -23 102
-21 0 -25 -7 -37 -70 -18 -97 -34 -88 -54 33 -6 31 -11 37 -31 37 l-25 0 0
-115z"/>
<path d="M2124 1986 c-16 -12 -20 -29 -22 -105 -4 -85 -3 -91 22 -115 30 -31
65 -33 97 -7 22 18 24 26 24 116 0 84 -3 98 -19 111 -25 18 -77 18 -102 0z
m74 -114 l3 -92 -26 0 c-25 0 -25 0 -25 88 0 92 4 105 30 100 12 -3 16 -22 18
-96z"/>
<path d="M2294 1985 c-3 -8 -4 -63 -2 -122 3 -93 6 -108 21 -111 15 -3 17 5
17 57 0 34 4 61 9 61 9 0 51 -90 51 -109 0 -6 7 -11 15 -11 13 0 15 21 15 125
0 104 -2 125 -15 125 -12 0 -15 -13 -15 -61 0 -52 -2 -60 -14 -50 -8 7 -17 24
-21 39 -14 57 -49 90 -61 57z m33 -87 c-3 -7 -5 -2 -5 12 0 14 2 19 5 13 2 -7
2 -19 0 -25z"/>
<path d="M1559 1953 c-1 -21 0 -55 1 -77 1 -23 -4 -42 -12 -47 -11 -7 -11 -10
0 -21 11 -11 13 -10 10 2 -2 12 9 16 50 18 28 2 52 8 52 13 0 6 5 7 10 4 6 -3
10 1 10 10 0 9 -4 13 -10 10 -11 -7 -13 3 -10 52 3 60 -7 73 -56 73 l-44 0 -1
-37z m81 -42 l0 -69 -32 3 c-22 2 -32 8 -29 17 2 7 3 37 2 66 -1 52 -1 52 29
52 l30 0 0 -69z"/>
<path d="M1604 1926 c-1 -33 3 -43 13 -39 16 6 17 23 2 23 -6 0 -8 7 -5 15 3
8 9 22 12 30 4 9 1 15 -8 15 -10 0 -14 -13 -14 -44z"/>
<path d="M1392 1950 c0 -14 2 -19 5 -12 2 6 2 18 0 25 -3 6 -5 1 -5 -13z"/>
<path d="M1690 1865 l0 -85 -94 0 c-53 0 -98 4 -101 10 -3 6 -11 10 -16 10 -6
0 -8 -4 -5 -8 7 -12 -68 -11 -75 0 -3 5 -9 3 -12 -6 -6 -14 12 -16 153 -16
l160 0 0 90 c0 50 -2 90 -5 90 -3 0 -5 -38 -5 -85z"/>
<path d="M1713 1885 c0 -22 2 -30 4 -17 2 12 2 30 0 40 -3 9 -5 -1 -4 -23z"/>
<path d="M1360 1900 c-8 -26 -7 -41 2 -32 6 6 8 16 5 24 -3 7 -6 11 -7 8z"/>
<path d="M1536 1873 c-6 -14 -5 -15 5 -6 7 7 10 15 7 18 -3 3 -9 -2 -12 -12z"/>
<path d="M1730 1856 c0 -8 -6 -17 -12 -19 -8 -3 -6 -6 5 -6 11 -1 17 6 17 19
0 11 -2 20 -5 20 -3 0 -5 -6 -5 -14z"/>
<path d="M1380 1842 c-8 -9 -13 -16 -11 -15 2 2 10 -2 18 -8 10 -9 13 -6 13
15 0 30 0 30 -20 8z"/>
<path d="M1412 1810 c0 -14 2 -19 5 -12 2 6 2 18 0 25 -3 6 -5 1 -5 -13z"/>
<path d="M1660 1815 c0 -18 -21 -20 -40 -2 -12 10 -12 9 -1 -5 17 -23 61 -20
61 4 0 10 -4 18 -10 18 -5 0 -10 -7 -10 -15z"/>
<path d="M1430 1816 c0 -9 30 -14 35 -6 4 6 -3 10 -14 10 -12 0 -21 -2 -21 -4z"/>
<path d="M1504 1805 c11 -8 22 -12 25 -9 6 6 -19 24 -34 24 -5 -1 -1 -7 9 -15z"/>
<path d="M1580 1811 c0 -5 7 -12 16 -15 14 -5 15 -4 4 9 -14 17 -20 19 -20 6z"/>
<path d="M1710 1790 c0 -11 4 -20 9 -20 17 0 19 15 5 28 -12 11 -14 9 -14 -8z"/>
<path d="M1350 1790 c0 -5 5 -10 10 -10 6 0 10 5 10 10 0 6 -4 10 -10 10 -5 0
-10 -4 -10 -10z"/>
<path d="M1154 1578 c2 -46 4 -102 5 -125 1 -30 5 -43 16 -43 10 0 15 15 17
58 2 43 7 57 18 57 10 0 20 -20 30 -57 10 -44 19 -58 32 -58 21 0 24 30 7 79
-9 25 -9 38 1 57 16 29 15 80 -1 100 -7 9 -31 14 -70 14 l-58 0 3 -82z m102
26 c8 -30 -12 -56 -40 -52 -16 2 -22 11 -24 37 -2 19 2 37 8 41 21 13 50 -1
56 -26z"/>
<path d="M1350 1535 l0 -125 50 0 c53 0 70 16 23 22 -26 3 -28 6 -28 48 0 39
3 45 23 48 12 2 22 7 22 12 0 5 -10 10 -22 12 -20 3 -23 9 -23 43 0 37 2 40
28 38 18 -1 27 3 27 13 0 10 -13 14 -50 14 l-50 0 0 -125z"/>
<path d="M1502 1635 c-25 -32 -19 -56 24 -100 57 -59 66 -95 24 -95 -10 0 -22
9 -25 20 -8 25 -35 26 -35 2 0 -40 52 -66 92 -46 51 26 46 72 -16 137 -20 20
-36 44 -36 52 0 23 31 31 45 12 14 -19 35 -23 35 -6 0 52 -73 68 -108 24z"/>
<path d="M1640 1649 c0 -6 9 -13 20 -16 17 -5 20 -15 22 -112 3 -101 4 -106
26 -109 22 -3 22 -2 22 107 0 104 1 111 20 111 11 0 20 7 20 15 0 12 -14 15
-65 15 -40 0 -65 -4 -65 -11z"/>
<path d="M1827 1653 c-4 -8 -14 -51 -37 -171 -13 -70 -13 -72 9 -72 13 0 21 9
26 31 5 23 11 29 28 27 13 -2 23 -13 27 -28 3 -14 14 -26 23 -28 25 -5 24 9
-14 196 -9 45 -14 52 -34 52 -13 0 -26 -3 -28 -7z m43 -125 c0 -39 -17 -60
-30 -37 -8 12 -5 53 6 89 8 25 24 -9 24 -52z"/>
<path d="M1962 1551 c3 -125 13 -145 72 -145 60 0 66 13 66 140 0 107 -1 114
-20 114 -19 0 -20 -7 -20 -109 0 -85 -3 -110 -14 -114 -26 -10 -35 18 -38 119
-3 95 -4 99 -26 102 l-24 4 4 -111z"/>
<path d="M2160 1535 c0 -118 1 -125 20 -125 18 0 20 7 20 54 0 50 12 77 27 62
3 -3 11 -29 18 -58 9 -43 16 -54 34 -56 21 -3 22 -1 16 30 -3 18 -11 45 -17
61 -9 22 -7 31 6 46 20 22 21 75 0 95 -10 11 -34 16 -70 16 l-54 0 0 -125z
m98 52 c-2 -27 -8 -33 -30 -35 -26 -3 -28 -1 -28 37 0 42 13 54 43 39 13 -7
17 -18 15 -41z"/>
<path d="M2386 1648 c-6 -20 -35 -180 -38 -208 -2 -19 2 -25 17 -25 12 0 21 9
25 25 4 16 14 26 28 28 18 3 23 -3 28 -27 8 -39 34 -41 34 -3 0 23 -25 169
-36 210 -2 6 -15 12 -29 12 -14 0 -27 -6 -29 -12z m46 -118 c2 -29 0 -35 -17
-35 -17 0 -20 5 -16 40 1 22 5 44 8 49 8 13 21 -14 25 -54z"/>
<path d="M2530 1535 c0 -115 2 -126 18 -123 14 3 17 14 17 60 0 91 13 84 55
-29 7 -18 19 -33 26 -33 11 0 14 25 14 125 0 104 -2 125 -15 125 -12 0 -15
-13 -15 -55 0 -71 -18 -72 -45 -3 -12 31 -28 54 -38 56 -15 3 -17 -9 -17 -123z"/>
<path d="M2700 1645 c0 -8 9 -15 20 -15 19 0 20 -7 20 -110 0 -103 1 -110 20
-110 19 0 20 7 20 106 0 97 2 106 20 111 11 3 20 12 20 19 0 10 -16 14 -60 14
-47 0 -60 -3 -60 -15z"/>
</g>
</svg>
