<?xml version="1.0" standalone="no"?>
<!DOCTYPE svg PUBLIC "-//W3C//DTD SVG 20010904//EN"
 "http://www.w3.org/TR/2001/REC-SVG-20010904/DTD/svg10.dtd">
<svg version="1.0" xmlns="http://www.w3.org/2000/svg"
 width="406.000000pt" height="383.000000pt" viewBox="0 0 406.000000 383.000000"
 preserveAspectRatio="xMidYMid meet">
<metadata>
Created by potrace 1.10, written by Peter Selinger 2001-2011
</metadata>
<g transform="translate(0.000000,383.000000) scale(0.100000,-0.100000)"
fill="#000000" stroke="none">
<path d="M1991 3546 c-8 -9 -12 -60 -13 -153 0 -76 -3 -219 -5 -318 l-4 -180
26 -25 c23 -22 27 -23 41 -8 21 21 28 208 17 488 -8 197 -9 205 -29 208 -11 2
-26 -4 -33 -12z m39 -142 c0 -104 -3 -135 -12 -132 -9 3 -14 39 -16 123 -3
122 0 145 18 145 6 0 10 -49 10 -136z m5 -332 c0 -99 -3 -184 -7 -187 -4 -4
-11 -4 -17 0 -12 7 -16 357 -4 369 23 22 28 -11 28 -182z"/>
<path d="M2517 3533 c-23 -26 -149 -407 -145 -440 2 -18 -4 -33 -15 -43 -25
-20 -69 -155 -65 -198 4 -46 30 -63 57 -38 12 11 21 29 21 41 0 11 4 25 9 31
15 16 43 113 39 138 -1 13 4 32 13 43 19 21 149 403 149 437 0 43 -35 59 -63
29z m-28 -237 c-50 -151 -76 -216 -87 -216 -19 0 -18 4 61 237 72 212 75 219
89 205 6 -6 -18 -90 -63 -226z m-92 -278 c-2 -7 -17 -52 -33 -100 -16 -51 -34
-88 -41 -88 -18 0 -17 14 14 112 22 69 32 88 47 88 10 0 16 -5 13 -12z"/>
<path d="M1830 3485 c-14 -17 -9 -103 21 -405 17 -169 23 -198 41 -217 20 -22
23 -22 40 -6 20 18 24 99 8 168 -5 22 -12 90 -16 150 -3 61 -11 128 -16 150
-6 22 -12 62 -14 89 -2 27 -10 56 -20 67 -21 23 -28 24 -44 4z m42 -60 c6 -25
5 -42 -2 -49 -16 -16 -30 11 -30 57 0 50 21 45 32 -8z m35 -306 c23 -213 24
-264 3 -243 -11 11 -62 463 -53 477 15 25 28 -31 50 -234z"/>
<path d="M1504 3419 l-21 -21 39 -121 c22 -67 43 -131 48 -142 5 -11 30 -84
55 -162 49 -148 72 -186 103 -167 9 6 18 21 20 34 4 23 -73 268 -89 285 -5 5
-9 18 -9 28 0 35 -73 242 -93 265 -25 27 -27 27 -53 1z m82 -144 c24 -71 41
-131 39 -134 -3 -2 -1 -9 4 -15 8 -10 101 -278 101 -291 0 -3 -6 -5 -14 -5
-16 0 -111 273 -101 290 3 5 -1 13 -9 16 -9 3 -16 12 -16 18 0 7 -17 65 -39
129 -21 64 -36 119 -33 122 15 15 28 -10 68 -130z"/>
<path d="M2827 3372 c-9 -10 -17 -21 -17 -24 0 -3 -36 -64 -80 -137 -44 -72
-80 -137 -80 -143 0 -6 -8 -21 -19 -32 -29 -32 -161 -259 -161 -277 0 -22 25
-41 47 -37 9 2 29 21 44 43 55 83 139 236 139 254 0 11 6 21 14 24 7 3 45 59
83 124 114 192 109 182 97 201 -15 24 -47 26 -67 4z m35 -45 c-11 -18 -43 -72
-72 -122 -64 -110 -88 -145 -101 -145 -18 0 -8 21 71 151 44 73 80 135 80 140
0 4 6 9 13 12 24 9 27 -5 9 -36z m-258 -441 c-53 -91 -85 -135 -96 -136 -10 0
-18 2 -18 4 0 5 106 185 147 249 17 26 28 36 35 29 7 -7 -15 -54 -68 -146z"/>
<path d="M1176 3341 c-26 -29 -37 -5 176 -368 140 -239 159 -264 186 -247 33
21 25 52 -50 177 -40 67 -80 136 -89 152 -9 17 -41 71 -71 120 -30 50 -61 101
-69 115 -18 32 -50 70 -59 70 -4 0 -15 -9 -24 -19z m41 -28 c3 -10 21 -40 38
-68 37 -57 99 -161 117 -196 24 -43 130 -223 149 -251 22 -32 24 -48 6 -48
-11 0 -265 418 -284 466 -4 10 -19 36 -35 58 -26 36 -29 56 -7 56 5 0 12 -8
16 -17z"/>
<path d="M2282 3277 c-12 -13 -22 -31 -22 -40 0 -9 -7 -42 -15 -74 -8 -31 -15
-71 -15 -89 0 -17 -7 -44 -14 -60 -8 -16 -18 -58 -22 -94 -5 -54 -3 -68 10
-79 38 -32 73 18 82 119 4 41 10 80 15 85 13 17 39 143 39 189 0 38 -13 66
-30 66 -4 0 -16 -10 -28 -23z m38 -31 c0 -28 -35 -180 -45 -196 -4 -7 -11 -8
-15 -3 -9 8 11 128 20 120 3 -3 6 13 7 34 0 22 4 46 7 54 9 24 26 17 26 -9z
m-50 -232 c0 -8 -4 -34 -9 -57 -6 -23 -12 -54 -16 -69 -5 -25 -35 -41 -35 -19
0 15 31 144 36 153 9 14 24 9 24 -8z"/>
<path d="M2132 3263 c-15 -23 -21 -61 -31 -207 -11 -170 -11 -181 7 -198 18
-18 19 -18 40 5 18 19 22 39 28 135 4 62 11 115 16 118 13 8 10 148 -4 162
-19 19 -35 14 -56 -15z m42 -60 c-8 -85 -13 -105 -27 -100 -8 3 -11 23 -9 58
4 76 10 99 27 99 12 0 14 -11 9 -57z m-19 -180 c-12 -109 -20 -148 -30 -143
-11 5 -11 71 0 156 4 38 11 54 22 54 12 0 13 -11 8 -67z"/>
<path d="M1732 3148 c-7 -7 -12 -23 -12 -36 0 -39 22 -116 39 -136 11 -12 15
-33 13 -65 -3 -37 1 -50 18 -66 49 -44 85 48 36 94 -20 19 -23 27 -13 41 8 14
8 34 -1 81 -15 83 -48 119 -80 87z m54 -83 c15 -57 12 -97 -6 -79 -12 12 -40
136 -33 147 10 16 24 -9 39 -68z m34 -161 c13 -34 13 -44 -4 -44 -15 0 -26 21
-26 51 0 27 19 23 30 -7z"/>
<path d="M3019 3072 c-284 -299 -379 -407 -379 -431 0 -25 25 -44 47 -37 17 6
357 367 422 450 33 41 38 65 19 84 -21 21 -33 14 -109 -66z m85 16 c-10 -12
-38 -43 -60 -68 -23 -25 -54 -58 -69 -75 -258 -284 -315 -340 -315 -309 0 9
44 58 174 199 61 65 147 158 191 206 46 49 84 83 89 78 6 -5 2 -18 -10 -31z"/>
<path d="M2848 3103 c-58 -64 -288 -383 -288 -401 0 -24 25 -46 44 -39 8 3 61
68 117 144 56 76 124 167 150 202 50 65 58 88 37 109 -18 18 -32 15 -60 -15z
m52 -8 c0 -3 -26 -40 -58 -83 -32 -42 -84 -112 -116 -154 -54 -72 -76 -92 -76
-68 0 18 222 310 236 310 8 0 14 -2 14 -5z m-247 -321 c9 -9 -45 -84 -60 -84
-20 0 -15 18 13 56 26 34 35 39 47 28z"/>
<path d="M930 3105 c-7 -8 -10 -25 -7 -37 7 -25 398 -452 424 -462 21 -8 43
11 43 39 0 23 -42 74 -263 313 -154 168 -170 180 -197 147z m191 -182 c227
-246 249 -270 249 -282 0 -30 -4 -26 -328 324 -56 61 -102 113 -102 118 0 27
47 -14 181 -160z"/>
<path d="M2497 3062 c-21 -23 -106 -204 -113 -240 -4 -20 0 -33 16 -47 21 -19
21 -19 44 6 26 27 116 226 116 256 0 21 -18 43 -35 43 -7 0 -19 -8 -28 -18z
m43 -25 c0 -7 -4 -17 -8 -22 -5 -6 -28 -55 -52 -110 -49 -113 -56 -123 -70
-109 -7 7 -4 23 8 50 11 21 36 76 57 122 21 45 44 82 52 82 7 0 13 -6 13 -13z"/>
<path d="M1192 3028 c-19 -19 -15 -35 24 -91 76 -111 197 -266 211 -272 44
-16 57 56 20 102 -13 15 -61 78 -107 138 -105 138 -120 151 -148 123z m148
-164 c101 -134 125 -174 101 -174 -14 0 -242 311 -235 321 9 15 19 4 134 -147z"/>
<path d="M1542 2958 c-19 -19 -14 -54 17 -122 29 -65 53 -85 77 -65 20 16 17
52 -8 112 -34 81 -58 103 -86 75z m61 -86 c30 -74 32 -82 17 -82 -10 0 -70
121 -70 141 0 5 6 9 13 9 6 0 24 -30 40 -68z"/>
<path d="M3359 2928 c-107 -77 -347 -245 -381 -266 -20 -13 -38 -26 -40 -30
-2 -4 -22 -19 -45 -34 -65 -42 -113 -88 -113 -108 0 -29 27 -45 53 -31 48 26
69 39 90 58 12 11 42 33 67 48 25 15 86 58 135 95 50 37 139 100 199 140 111
76 139 108 119 138 -17 27 -36 25 -84 -10z m71 -8 c0 -5 -46 -42 -102 -81 -57
-40 -159 -112 -226 -161 -68 -48 -128 -88 -132 -88 -5 0 -22 -12 -37 -26 -35
-32 -111 -84 -124 -84 -21 0 -6 20 46 59 30 23 63 45 72 48 10 4 23 12 28 20
16 20 449 322 463 323 6 0 12 -4 12 -10z"/>
<path d="M3084 2917 c-17 -12 -106 -89 -197 -170 -142 -126 -167 -152 -167
-176 0 -57 22 -56 96 4 38 31 94 80 124 108 30 29 88 79 128 111 80 64 96 96
66 126 -18 18 -20 18 -50 -3z m26 -50 c-14 -13 -50 -43 -80 -68 -30 -24 -80
-68 -110 -96 -114 -105 -180 -156 -179 -136 1 26 369 347 383 333 7 -7 3 -17
-14 -33z"/>
<path d="M932 2898 c-21 -21 -13 -57 20 -85 17 -16 54 -50 82 -77 71 -68 165
-146 177 -146 5 0 22 -15 38 -32 29 -32 29 -33 50 -14 12 11 21 24 21 30 0 15
-168 176 -236 227 -30 22 -58 47 -60 54 -5 11 -66 55 -78 55 -1 0 -7 -5 -14
-12z m58 -46 c46 -39 32 -62 -16 -24 -31 25 -45 52 -26 52 4 0 23 -13 42 -28z
m155 -137 c72 -62 85 -75 85 -87 0 -20 -28 -3 -88 50 -35 31 -76 66 -90 78
-15 12 -22 26 -18 33 9 14 9 14 111 -74z m145 -149 c-8 -8 -15 -6 -25 8 -20
26 -7 41 16 20 14 -13 16 -21 9 -28z"/>
<path d="M897 2732 c-10 -10 -17 -23 -17 -29 0 -16 93 -91 223 -178 l118 -79
22 22 c30 30 20 43 -89 120 -49 35 -97 69 -106 77 -31 26 -120 85 -128 85 -4
0 -14 -8 -23 -18z m81 -47 c28 -20 52 -43 52 -51 0 -9 -6 -14 -13 -11 -27 10
-115 81 -111 89 8 13 17 10 72 -27z m168 -122 c58 -41 91 -70 85 -76 -11 -11
-191 111 -191 130 0 7 3 13 6 13 3 0 49 -30 100 -67z"/>
<path d="M642 2728 c-7 -7 -12 -24 -12 -39 0 -25 11 -34 103 -85 209 -117 193
-110 211 -95 38 32 12 66 -99 127 -38 21 -94 53 -124 71 -62 37 -63 37 -79 21z
m157 -96 c120 -69 163 -102 132 -102 -5 0 -36 15 -68 34 -76 43 -151 86 -185
103 -25 13 -40 44 -20 43 4 -1 67 -35 141 -78z"/>
<path d="M3210 2648 c-30 -17 -95 -54 -145 -83 -49 -29 -117 -68 -149 -86 -32
-19 -64 -42 -70 -52 -15 -24 5 -52 36 -50 21 1 106 45 178 92 14 9 36 21 50
26 14 6 60 30 103 54 83 46 110 79 90 109 -15 25 -33 24 -93 -10z m78 -10 c-5
-15 -176 -117 -197 -118 -8 0 -24 -8 -35 -19 -25 -22 -169 -101 -185 -101 -6
0 -11 4 -11 9 0 10 179 114 198 114 6 0 12 4 12 8 0 5 35 28 77 51 43 24 87
48 98 55 27 15 48 16 43 1z"/>
<path d="M3550 2640 c-8 -5 -62 -29 -119 -54 -142 -62 -163 -83 -121 -121 18
-17 22 -16 102 20 46 21 106 49 135 62 59 26 74 54 47 84 -19 21 -22 22 -44 9z
m35 -29 c7 -13 -1 -17 -140 -78 -76 -34 -123 -49 -129 -43 -9 9 155 92 210
106 13 3 27 10 30 15 7 12 21 11 29 0z"/>
<path d="M496 2611 c-9 -10 -16 -25 -16 -34 0 -19 46 -57 69 -57 9 0 34 -10
56 -21 44 -24 391 -179 467 -210 43 -17 49 -17 63 -3 38 39 13 69 -95 114 -41
18 -113 49 -160 69 -47 21 -125 55 -175 75 -49 21 -97 42 -106 46 -9 5 -33 15
-52 24 -32 13 -37 13 -51 -3z m98 -52 c20 -19 -6 -21 -49 -5 -43 17 -52 26
-39 38 6 7 73 -18 88 -33z m136 -54 c47 -20 105 -46 130 -57 25 -11 92 -40
150 -65 112 -47 130 -58 114 -72 -14 -13 -498 204 -503 225 -2 11 2 15 10 11
8 -3 52 -22 99 -42z"/>
<path d="M980 2525 c-25 -31 -3 -60 82 -108 86 -49 113 -54 132 -24 17 26 -1
45 -90 99 -85 51 -105 56 -124 33z m119 -61 c78 -44 98 -64 66 -64 -21 0 -175
89 -175 101 0 18 29 8 109 -37z"/>
<path d="M3075 2434 c-94 -41 -176 -81 -184 -89 -16 -16 -8 -60 14 -69 17 -6
354 137 366 156 14 21 10 44 -9 61 -16 14 -30 10 -187 -59z m180 18 c-6 -5
-55 -28 -110 -51 -130 -55 -164 -70 -199 -87 -20 -10 -33 -11 -40 -4 -5 5 -7
12 -5 15 3 3 82 38 175 79 106 47 173 71 179 65 5 -6 5 -12 0 -17z"/>
<path d="M3475 2434 c-5 -1 -86 -27 -180 -57 -93 -29 -210 -66 -260 -82 -106
-33 -117 -40 -113 -73 6 -48 27 -49 155 -8 65 21 136 45 158 53 22 8 89 30
148 48 116 36 137 48 137 75 0 19 -30 49 -45 44z m25 -44 c0 -5 -46 -23 -102
-40 -57 -18 -134 -42 -173 -55 -66 -23 -85 -24 -85 -6 0 7 199 75 335 115 13
4 25 -3 25 -14z m-370 -113 c0 -7 -37 -24 -84 -40 -96 -31 -106 -32 -106 -14
0 6 37 24 83 39 94 31 107 33 107 15z"/>
<path d="M607 2402 c-45 -49 -11 -67 336 -176 118 -38 153 -59 58 -36 -28 6
-55 9 -61 5 -6 -4 -17 -2 -24 4 -11 10 -143 39 -344 78 -82 15 -84 15 -104 -4
-17 -18 -18 -23 -6 -42 15 -25 20 -27 124 -46 43 -9 122 -25 174 -36 99 -21
145 -31 244 -49 55 -10 61 -9 80 10 18 17 19 23 8 41 -12 18 -11 24 7 40 27
26 27 55 -1 73 -13 8 -104 40 -203 71 -99 31 -200 63 -224 71 -25 8 -45 14
-46 14 -1 0 -9 -8 -18 -18z m64 -26 c24 -8 131 -42 237 -76 105 -33 192 -65
192 -70 0 -19 -19 -17 -115 15 -55 18 -125 40 -155 49 -30 9 -62 20 -70 23 -8
3 -21 7 -28 9 -44 9 -112 40 -112 51 0 16 -3 16 51 -1z m-39 -141 c68 -14 156
-32 196 -40 40 -8 77 -17 82 -20 15 -9 2 -25 -21 -25 -13 0 -18 4 -13 12 4 6
3 8 -4 4 -6 -3 -57 3 -114 15 -57 11 -141 28 -187 37 -46 9 -86 23 -89 30 -5
17 10 16 150 -13z m386 -78 c66 -16 64 -33 -3 -29 -55 4 -89 18 -80 33 8 11
18 11 83 -4z"/>
<path d="M3158 2210 c-98 -21 -184 -43 -193 -50 -21 -18 -19 -56 5 -73 18 -13
19 -16 5 -27 -20 -17 -19 -43 3 -63 24 -21 51 -21 81 0 17 11 28 13 40 6 10
-6 41 -7 83 -2 36 4 120 13 185 19 65 7 143 14 173 17 63 6 80 16 80 48 0 38
-23 48 -92 41 -35 -3 -139 -13 -233 -22 -130 -12 -176 -21 -197 -35 -22 -15
-28 -16 -38 -4 -6 7 -21 15 -33 17 -19 3 167 46 276 64 63 11 87 54 50 86 -16
13 -37 11 -195 -22z m187 -19 c-6 -5 -37 -14 -70 -19 -33 -6 -114 -23 -180
-37 -66 -14 -121 -25 -122 -25 -4 0 -4 30 0 30 1 1 83 18 182 39 163 34 217
38 190 12z m255 -106 c0 -11 -12 -15 -45 -15 -42 0 -54 7 -38 23 3 4 24 7 45
7 27 0 38 -4 38 -15z m-100 -9 c0 -11 -21 -16 -77 -21 -43 -4 -130 -13 -193
-20 -105 -11 -146 -8 -126 12 8 8 271 40 349 42 34 1 47 -3 47 -13z m-444 -37
c8 -14 -14 -29 -43 -29 -27 0 -40 19 -22 31 20 12 57 11 65 -2z"/>
<path d="M437 2122 c-22 -24 -21 -35 2 -56 19 -18 45 -21 438 -62 141 -15 174
-15 187 -5 21 18 20 44 -1 63 -16 13 -206 38 -498 64 -33 3 -72 7 -86 10 -17
3 -31 -2 -42 -14z m188 -32 c270 -24 428 -45 433 -58 5 -16 -21 -16 -193 3
-77 8 -199 22 -272 29 -73 8 -137 17 -143 21 -19 12 1 26 28 21 15 -3 81 -10
147 -16z"/>
<path d="M1000 1792 c-8 -2 -22 -11 -32 -19 -13 -12 -20 -12 -36 -2 -15 10
-56 9 -198 -5 -98 -9 -183 -21 -187 -26 -5 -4 -27 -5 -48 -3 -43 6 -79 -15
-79 -47 0 -40 20 -43 202 -25 95 9 203 19 240 22 47 4 73 11 84 24 14 16 18
16 31 4 16 -17 56 -20 81 -6 10 5 31 6 47 3 l30 -6 -35 -9 c-19 -5 -48 -9 -64
-8 -16 0 -64 -8 -105 -18 -42 -10 -109 -24 -149 -31 -86 -14 -118 -35 -109
-72 9 -36 29 -40 100 -23 34 8 106 24 160 35 53 12 104 28 111 36 9 9 25 12
43 8 57 -11 109 28 86 65 -8 12 -5 18 10 26 31 16 44 42 31 63 -9 14 -27 17
-105 18 -52 0 -101 -1 -109 -4z m197 -35 c-2 -7 -29 -13 -68 -15 -35 -1 -82
-4 -103 -5 -23 -1 -41 3 -43 10 -5 15 14 18 125 21 70 1 92 -2 89 -11z m-267
-20 c0 -10 -49 -18 -190 -32 -105 -9 -194 -15 -197 -11 -16 16 22 26 152 39
189 20 235 20 235 4z m-405 -42 c0 -5 -19 -11 -42 -13 -40 -3 -53 5 -36 22 11
10 78 3 78 -9z m635 -25 c0 -13 -66 -24 -82 -14 -9 6 -2 11 22 15 54 10 60 10
60 -1z m-122 -22 c-4 -11 -70 -29 -263 -71 -45 -10 -73 -12 -80 -6 -15 15 11
27 90 40 38 6 102 20 140 29 85 22 118 24 113 8z"/>
<path d="M2977 1772 c-22 -24 -21 -35 1 -55 23 -21 608 -82 629 -66 16 14 17
53 0 67 -12 10 -151 28 -442 57 -184 18 -169 19 -188 -3z m239 -32 c109 -11
235 -25 279 -30 44 -6 85 -10 92 -10 7 0 13 -7 13 -16 0 -13 -8 -15 -47 -10
-27 3 -160 17 -298 31 -266 27 -280 29 -270 45 8 13 -2 13 231 -10z"/>
<path d="M2963 1679 c-7 -7 -13 -23 -13 -35 0 -12 6 -26 13 -32 10 -8 84 -24
127 -28 8 0 33 -6 55 -12 22 -6 85 -21 140 -32 55 -11 133 -28 173 -38 80 -18
104 -12 110 27 5 31 -12 47 -56 54 -20 3 -113 22 -206 41 -92 20 -172 34 -176
31 -4 -3 -21 2 -37 10 -44 22 -115 29 -130 14z m122 -39 c49 -19 15 -30 -53
-17 -41 8 -62 16 -62 26 0 10 10 12 43 8 24 -3 56 -11 72 -17z m221 -46 c93
-19 186 -38 207 -41 22 -3 37 -11 37 -19 0 -17 -32 -18 -80 -4 -19 6 -69 17
-110 25 -110 20 -222 45 -232 51 -7 5 -2 24 6 24 2 0 79 -16 172 -36z"/>
<path d="M1145 1616 c-33 -8 -101 -28 -150 -45 -50 -17 -101 -34 -114 -37 -14
-3 -50 -13 -80 -24 -31 -10 -95 -30 -143 -44 -92 -29 -138 -57 -138 -86 0 -49
37 -43 365 64 22 8 60 19 85 26 25 6 72 20 104 31 33 10 62 16 64 14 3 -3 -4
-7 -14 -11 -10 -4 -80 -33 -155 -65 -76 -33 -142 -59 -148 -59 -6 0 -28 -16
-49 -35 -26 -23 -42 -31 -49 -24 -11 11 -235 -83 -270 -114 -28 -25 -29 -39
-4 -61 19 -17 22 -17 78 10 32 15 90 39 128 54 54 21 74 34 85 57 13 25 18 27
29 16 7 -8 21 -11 34 -7 57 16 415 179 435 197 26 24 29 55 6 64 -13 5 -11 10
13 29 23 19 26 26 17 41 -14 23 -53 25 -129 9z m109 -15 c6 -9 -156 -66 -274
-96 -36 -9 -74 -21 -85 -26 -16 -7 -267 -86 -339 -107 -39 -11 -9 23 35 40 51
20 258 85 291 92 13 3 48 15 78 26 44 18 255 77 282 79 4 1 9 -3 12 -8z m-16
-93 c-3 -7 -15 -18 -29 -25 -151 -73 -420 -184 -430 -177 -13 8 7 32 34 40 21
6 234 95 357 149 63 28 73 30 68 13z m-513 -218 c8 -13 -10 -22 -145 -80 -64
-28 -118 -46 -123 -41 -12 12 -2 17 133 78 128 57 126 57 135 43z"/>
<path d="M2935 1580 c-19 -21 -19 -44 1 -64 14 -15 13 -16 -8 -16 -46 0 -64
-43 -30 -72 9 -9 62 -35 117 -58 55 -23 159 -69 232 -102 72 -32 142 -60 155
-60 13 -1 30 -7 38 -14 9 -7 33 -20 54 -29 45 -19 69 -7 64 34 -3 28 -50 60
-92 65 -14 1 -34 9 -43 18 -15 12 -130 64 -328 149 -112 48 -137 60 -133 64 5
5 299 -85 396 -121 40 -15 44 -15 63 2 10 9 19 22 19 29 0 20 -43 51 -90 64
-25 6 -54 16 -65 21 -11 5 -58 21 -105 36 -47 14 -117 36 -157 49 -68 21 -73
22 -88 5z m245 -84 c47 -15 94 -31 105 -36 11 -5 40 -15 65 -21 53 -15 74 -29
62 -41 -8 -8 -22 -5 -107 28 -11 4 -23 6 -27 6 -4 -1 -31 7 -60 17 -29 11
-100 34 -158 52 -111 34 -126 41 -116 57 4 6 34 1 78 -13 40 -13 111 -35 158
-49z m-174 -56 c38 -17 78 -35 89 -39 11 -5 31 -13 45 -19 14 -6 81 -36 150
-66 69 -30 125 -61 125 -68 0 -19 -9 -16 -255 91 -124 54 -233 101 -242 104
-10 4 -18 11 -18 17 0 18 35 11 106 -20z m494 -216 c22 -9 40 -22 40 -30 0
-18 1 -18 -55 6 -25 11 -43 24 -40 30 8 13 7 13 55 -6z"/>
<path d="M1140 1399 c-74 -38 -139 -74 -145 -79 -5 -5 -51 -30 -100 -56 -175
-92 -194 -110 -157 -147 l22 -21 71 34 c40 19 93 48 118 64 88 56 301 171 301
162 0 -2 -48 -37 -106 -78 -59 -40 -141 -98 -183 -129 -74 -54 -197 -140 -309
-216 -55 -38 -73 -72 -52 -98 25 -31 29 -29 395 235 42 30 98 70 123 88 26 18
64 45 86 60 21 15 54 37 73 48 20 12 39 28 44 35 6 9 9 10 9 2 0 -6 -21 -29
-47 -50 -27 -20 -91 -76 -143 -123 -52 -47 -116 -102 -142 -123 -104 -83 -130
-126 -94 -156 24 -20 32 -14 322 245 43 39 119 111 167 161 73 75 88 95 82
113 -6 18 -12 20 -33 15 l-27 -7 23 25 c17 18 22 32 17 46 -11 35 -49 24 -115
-34 -14 -12 -38 -31 -55 -41 l-30 -18 28 30 c31 35 35 59 9 73 -14 7 -48 -6
-152 -60z m300 43 c0 -11 -146 -134 -185 -156 -16 -9 -55 -34 -85 -56 -55 -40
-85 -51 -78 -28 4 12 332 248 345 248 2 0 3 -4 3 -8z m-150 -10 c0 -17 -36
-39 -172 -110 -76 -39 -140 -67 -143 -62 -8 13 44 46 179 117 125 64 136 69
136 55z m115 -72 c-3 -5 -16 -15 -28 -21 -22 -12 -22 -12 -3 10 19 21 43 30
31 11z m4 -56 c-30 -31 -126 -119 -214 -197 -88 -78 -162 -144 -165 -147 -19
-20 -104 -90 -111 -90 -25 0 -2 32 59 84 110 94 181 156 292 256 129 117 182
161 189 154 3 -2 -20 -30 -50 -60z m-458 -72 c-38 -26 -180 -102 -191 -102
-19 0 -10 25 13 36 36 17 140 76 162 90 14 10 22 11 30 3 7 -8 3 -16 -14 -27z
m115 -75 c-122 -92 -433 -307 -444 -307 -25 0 -6 24 49 62 30 21 133 94 229
162 115 82 178 121 185 114 7 -6 0 -17 -19 -31z"/>
<path d="M2852 1408 c-37 -37 4 -86 112 -138 51 -25 73 -31 85 -23 21 13 26
40 11 58 -9 11 -183 115 -193 115 -2 0 -8 -5 -15 -12z m108 -69 c87 -50 115
-78 66 -65 -42 10 -161 83 -164 100 -2 9 -1 16 2 16 4 0 47 -23 96 -51z"/>
<path d="M2794 1309 c-29 -32 -29 -33 233 -224 79 -58 89 -61 113 -40 28 25
25 39 -12 70 -38 31 -303 215 -310 215 -3 0 -13 -9 -24 -21z m115 -69 c78 -54
98 -74 82 -84 -11 -7 -191 125 -185 136 8 12 10 11 103 -52z m172 -121 c52
-37 66 -59 38 -59 -18 0 -120 81 -114 91 9 14 12 12 76 -32z"/>
<path d="M3092 1268 c-19 -19 -14 -56 11 -73 19 -14 169 -99 250 -142 33 -18
57 -4 57 32 0 25 -8 33 -62 64 -21 12 -53 29 -70 39 -113 63 -165 92 -169 92
-3 0 -10 -5 -17 -12z m87 -55 c36 -20 82 -45 101 -56 19 -11 52 -29 73 -40 20
-12 37 -27 37 -34 0 -7 -3 -13 -6 -13 -17 0 -284 157 -284 168 0 18 6 16 79
-25z"/>
<path d="M1280 1108 c-78 -84 -181 -195 -228 -246 -105 -113 -151 -172 -152
-192 0 -19 19 -40 36 -40 15 0 0 -15 217 217 197 211 294 326 303 361 6 21
-10 52 -26 52 -5 0 -72 -69 -150 -152z m160 115 c0 -10 -89 -121 -151 -188
-30 -33 -74 -80 -97 -105 -29 -32 -44 -42 -52 -34 -8 8 14 37 76 105 47 52
114 124 148 161 57 63 76 78 76 61z m-300 -340 c0 -12 -193 -218 -207 -221
-27 -7 -10 18 84 121 86 94 123 124 123 100z"/>
<path d="M2732 1238 c-7 -7 -12 -21 -12 -31 0 -20 121 -142 203 -204 28 -21
67 -54 87 -74 51 -50 77 -64 96 -48 24 20 16 55 -18 84 -18 15 -74 66 -125
113 -51 47 -104 93 -119 101 -16 9 -39 28 -52 44 -26 29 -42 33 -60 15z m48
-33 c19 -23 1 -39 -21 -19 -10 9 -19 21 -19 26 0 13 27 9 40 -7z m100 -86
c110 -100 130 -121 124 -130 -7 -13 -18 -6 -117 81 -79 68 -95 90 -64 90 7 0
32 -19 57 -41z m193 -174 c27 -24 35 -45 17 -45 -10 0 -70 55 -70 65 0 13 27
2 53 -20z"/>
<path d="M2662 1168 c-22 -22 -13 -56 27 -102 114 -131 366 -396 383 -402 23
-7 48 12 48 36 0 20 -34 60 -209 250 -139 150 -218 230 -230 230 -4 0 -12 -5
-19 -12z m230 -238 c112 -121 205 -225 206 -230 2 -6 -3 -10 -11 -10 -8 0 -59
48 -113 107 -55 59 -126 137 -160 173 -117 125 -144 157 -144 169 0 6 4 11 10
11 5 0 101 -99 212 -220z"/>
<path d="M1413 1096 c-16 -13 -35 -37 -43 -53 -8 -15 -23 -37 -33 -48 -10 -11
-42 -54 -71 -95 -29 -41 -72 -97 -95 -125 -23 -27 -44 -61 -48 -73 -7 -30 17
-56 44 -48 11 4 69 73 129 154 59 81 125 169 146 195 43 55 47 76 19 101 -17
16 -20 15 -48 -8z m21 -60 c-16 -20 -32 -36 -36 -36 -5 0 -8 -5 -8 -11 0 -19
-221 -309 -236 -309 -12 0 -13 4 -2 23 25 44 220 297 229 297 5 0 9 8 9 18 0
25 50 76 62 64 7 -7 1 -22 -18 -46z"/>
<path d="M2577 1102 c-9 -10 -17 -23 -17 -28 0 -12 90 -144 139 -204 20 -25
44 -57 54 -72 26 -42 63 -63 82 -48 8 7 15 21 15 32 0 29 -218 326 -246 335
-6 2 -18 -5 -27 -15z m142 -162 c107 -145 126 -176 99 -168 -24 8 -241 302
-230 312 13 13 25 0 131 -144z"/>
<path d="M1508 1053 c-9 -10 -52 -81 -97 -158 -98 -168 -81 -138 -186 -313
-47 -78 -85 -148 -85 -156 0 -7 8 -20 18 -29 16 -15 20 -15 40 -1 12 8 34 36
48 62 13 26 49 88 79 137 30 50 54 95 55 102 0 7 10 22 23 35 27 28 167 270
167 291 0 13 -30 47 -42 47 -3 0 -12 -8 -20 -17z m34 -32 c-3 -14 -118 -215
-144 -253 -20 -29 -38 -37 -38 -17 0 20 165 289 175 285 6 -2 9 -9 7 -15z
m-188 -309 c5 -9 -143 -265 -167 -290 -8 -7 -17 -10 -20 -5 -6 9 164 303 175
303 4 0 9 -4 12 -8z"/>
<path d="M2492 1048 c-7 -7 -12 -21 -12 -33 0 -19 191 -351 297 -515 50 -78
75 -92 97 -57 13 20 -8 64 -111 236 -35 58 -63 106 -63 107 0 7 -143 241 -156
256 -20 21 -35 23 -52 6z m108 -142 c38 -65 70 -119 70 -120 0 -1 29 -51 65
-111 36 -59 65 -114 65 -121 0 -7 4 -14 8 -16 9 -3 52 -72 52 -82 0 -3 -6 -6
-13 -6 -11 0 -120 177 -295 477 -30 51 -51 97 -47 103 10 16 16 9 95 -124z"/>
<path d="M1598 992 c-28 -29 -105 -186 -114 -231 -4 -18 0 -32 14 -44 19 -17
21 -17 45 5 23 22 117 223 117 252 0 7 -8 20 -18 29 -17 16 -20 15 -44 -11z
m35 -34 c-6 -7 -30 -58 -54 -113 -42 -97 -55 -118 -70 -109 -8 5 4 39 58 154
42 90 53 104 66 91 7 -7 7 -14 0 -23z"/>
<path d="M2402 1008 c-19 -19 -13 -69 16 -127 31 -64 53 -81 76 -62 32 27 7
119 -47 179 -24 25 -29 26 -45 10z m58 -80 c33 -70 37 -88 17 -88 -12 0 -67
115 -67 140 0 28 24 3 50 -52z"/>
<path d="M1692 957 c-12 -13 -22 -30 -22 -38 0 -9 -3 -19 -7 -22 -13 -13 -43
-112 -43 -141 0 -16 -7 -37 -15 -46 -17 -19 -145 -402 -145 -435 0 -12 8 -29
18 -38 17 -16 20 -16 39 6 25 26 153 399 153 443 0 17 6 37 14 44 34 28 77
209 56 235 -17 20 -23 19 -48 -8z m38 -25 c0 -10 -3 -22 -7 -26 -4 -3 -8 -13
-9 -21 -5 -34 -46 -145 -54 -145 -24 0 -14 49 30 155 4 11 11 28 14 38 7 23
26 22 26 -1z m-86 -241 c6 -10 -130 -421 -144 -435 -6 -6 -11 -4 -14 5 -7 20
118 391 129 382 4 -4 5 -2 1 5 -15 25 13 68 28 43z"/>
<path d="M2302 968 c-7 -7 -12 -23 -12 -36 0 -27 77 -262 91 -277 5 -5 9 -17
9 -28 0 -38 76 -250 98 -274 22 -24 24 -24 43 -8 10 10 19 27 19 37 0 22 -66
232 -85 268 -7 14 -15 40 -18 57 -4 18 -16 52 -27 75 -11 23 -20 49 -20 57 0
24 -23 83 -43 114 -19 29 -36 34 -55 15z m81 -157 c26 -76 47 -141 47 -145 0
-3 -6 -6 -13 -6 -9 0 -29 47 -54 123 -58 173 -56 167 -40 167 9 0 30 -48 60
-139z m65 -187 c2 -10 21 -71 43 -134 34 -103 40 -153 12 -118 -16 20 -90 252
-85 266 6 18 26 9 30 -14z"/>
<path d="M1792 927 c-25 -26 -38 -64 -51 -147 -5 -30 -19 -92 -30 -138 -26
-104 -26 -124 0 -148 21 -19 21 -19 43 9 23 29 56 155 56 213 0 16 4 34 10 40
16 16 36 153 24 171 -16 26 -28 25 -52 0z m38 -19 c0 -7 -8 -44 -18 -82 -18
-69 -42 -100 -42 -54 0 25 24 120 34 137 10 15 26 14 26 -1z m-63 -287 c-25
-107 -30 -117 -45 -107 -6 4 -3 40 9 93 23 107 36 140 50 126 6 -6 2 -44 -14
-112z"/>
<path d="M2202 938 c-20 -20 -14 -72 11 -96 23 -22 24 -22 40 -4 21 23 22 61
1 90 -17 25 -34 28 -52 10z m48 -59 c0 -10 -5 -21 -10 -24 -13 -8 -33 44 -25
64 6 14 8 13 21 -3 8 -11 14 -28 14 -37z"/>
<path d="M1888 913 c-11 -13 -17 -50 -21 -122 -4 -57 -11 -109 -17 -115 -5 -5
-10 -42 -10 -82 0 -57 4 -77 20 -95 l20 -24 24 29 c20 24 24 43 30 130 3 55 9
138 12 183 5 60 3 87 -6 98 -16 20 -33 19 -52 -2z m34 -113 c-12 -95 -19 -117
-33 -103 -5 5 -4 48 1 98 12 109 16 123 32 107 8 -8 8 -35 0 -102z m-18 -143
c0 -9 -1 -41 -2 -69 -3 -61 -16 -92 -31 -69 -8 13 -5 119 5 149 6 19 29 9 28
-11z"/>
<path d="M1998 913 c-12 -14 -17 -58 -22 -198 -4 -100 -4 -184 0 -187 3 -4 5
-69 5 -145 -2 -129 0 -140 19 -158 18 -16 22 -17 35 -4 22 21 27 667 6 692
-17 21 -24 21 -43 0z m37 -85 c3 -40 5 -125 3 -188 -2 -94 -6 -115 -18 -115
-13 0 -15 27 -18 175 -1 96 0 180 2 187 12 32 25 7 31 -59z m-5 -454 c0 -104
-3 -135 -12 -132 -9 3 -14 39 -16 123 -3 122 0 145 18 145 6 0 10 -49 10 -136z"/>
<path d="M2102 918 c-7 -7 -12 -39 -12 -72 0 -65 24 -299 40 -387 5 -30 10
-73 10 -95 0 -29 6 -47 23 -62 23 -22 24 -22 40 -4 15 16 15 33 8 145 -5 69
-12 130 -14 134 -3 4 -10 78 -17 163 -9 114 -16 160 -27 173 -19 20 -34 22
-51 5z m57 -208 c26 -234 28 -279 16 -280 -5 -1 -13 11 -17 27 -12 50 -49 434
-42 444 15 25 24 -16 43 -191z m35 -342 c4 -23 3 -45 -2 -50 -13 -13 -20 0
-28 50 -5 34 -4 42 8 42 10 0 18 -14 22 -42z"/>
<path d="M2232 808 c-26 -26 -9 -133 26 -174 l24 -26 21 20 c18 19 19 25 9 77
-20 97 -48 135 -80 103z m52 -88 c15 -63 10 -95 -11 -68 -14 19 -36 126 -28
139 12 18 23 -3 39 -71z"/>
</g>
</svg>
